<?xml version="1.0" encoding="utf-8"?>
<!-- Generator: Adobe Illustrator 27.8.1, SVG Export Plug-In . SVG Version: 6.00 Build 0)  -->
<svg version="1.1" id="Layer_1" xmlns="http://www.w3.org/2000/svg" xmlns:xlink="http://www.w3.org/1999/xlink" x="0px" y="0px"
	 viewBox="0 0 200 200" style="enable-background:new 0 0 200 200;" xml:space="preserve">
<style type="text/css">
	.st0{fill:#FFFFFF;}
</style>
<g>
	<path d="M193.2,76.7C182.3,32.9,143,3.5,99.9,3.5c-7.7,0-15.5,0.9-23.3,2.9C25.2,19.3-6,71.6,6.9,123.3
		c11,43.9,50.2,73.2,93.3,73.2c7.7,0,15.5-0.9,23.3-2.9C174.9,180.8,206.2,128.4,193.2,76.7z"/>
	<g>
		<path class="st0" d="M195.9,76.1c-2.8-11-7.3-21.4-13.5-30.8c-6-9.1-13.4-17.1-22.1-23.8C143,8.1,121.6,0.8,99.9,0.8h0
			c-8,0-16.1,1-23.9,3c-25.6,6.4-47.2,22.4-60.7,45.1C1.7,71.6-2.2,98.3,4.2,124c2.8,11,7.3,21.4,13.5,30.8
			c6,9.1,13.4,17.1,22.1,23.8c17.3,13.4,38.7,20.7,60.4,20.7c8,0,16.1-1,24-3c25.6-6.4,47.2-22.5,60.7-45.2
			C198.4,128.4,202.4,101.8,195.9,76.1z M100.2,196.5c-43.1,0-82.3-29.3-93.3-73.2C-6,71.6,25.2,19.3,76.7,6.4
			c7.8-1.9,15.6-2.9,23.3-2.9c43.1,0,82.4,29.3,93.3,73.2c13,51.7-18.3,104-69.7,116.9C115.7,195.6,107.9,196.5,100.2,196.5z"/>
		<g>
			<g>
				<path class="st0" d="M93.3,91.7C93.3,91.7,93.3,91.7,93.3,91.7l3.4,0c3.3-0.1,4.1-0.2,5.6-0.7c5.5-1.6,5.5-6.3,5.6-9.1
					c0-0.4,0-11.5,0-11.5c0-6.8-2.9-7.8-9.5-7.8h-5.1c-0.5,0.1-0.6,0.3-0.6,0.8c0,0,0,27.3,0,27.6C92.6,91.4,92.8,91.7,93.3,91.7z"
					/>
				<path class="st0" d="M100.9,101.6c-2.5-0.3-5-0.2-7.5-0.2c-0.5,0-0.6,0.4-0.6,0.6c0,0.2,0.1,29,0.1,34.3c0,0.6,0.2,1,0.9,1
					c0.5,0,7.6,0,7.6,0c4.1-0.1,5.7-0.7,7.1-1.6c2.2-1.7,2.6-4.4,2.6-10.2l0-12.7c0-1.8-0.1-3.7-0.7-5.4c-0.6-1.7-1.6-2.9-3.1-3.8
					C105.4,102.3,103,101.9,100.9,101.6z"/>
				<g>
					<path class="st0" d="M102.8,155.4c18.3-5.9,28.4-14,38.9-23.2c4.3-3.8,8-6.6,11.1-8.5c0.6-3.8,0.9-7.6,0.8-11.5
						c-7.4,3.6-17,6.7-27.7,8.9l0-4.5c11.7-2.5,20.9-5.9,27.4-9.2c-0.2-2.3-0.6-4.6-1.1-7c-0.4-1.6-0.7-3.1-1.1-4.7
						c-2.4,0.9-5,1.6-7.9,2c-1.4,0.2-2.7,0.3-4.2,0.3c-6,0-12.3-1.6-18.8-4.1c1-1.6,1.2-2.3,1.7-4c7.3,2.8,14.4,4.3,20.6,3.5
						c2.7-0.4,5.1-1,7.3-1.9c-3.4-11.1-8.3-20.8-14.6-28.8c-6.3-8-14.1-14.4-23.1-19c-6-3-11.6-4.9-16.4-6c-7.9-1.8-16.1-1-23.5,2.4
						c-9.8,4.6-18.3,11.5-24.8,20.1c6.4-1.2,17.4-1.5,30.2,5.5l0,5c-0.6-0.4-1.3-0.7-1.9-1.1c-16.3-8.9-29.3-5-32.1-3.9
						c-5.3,8.7-8.6,18.6-9.4,29.2c1.6,2.1,6.7,8.2,15.8,13.8c6.3,3.9,15.5,8.1,27.7,10.2l0,4.5c-13.3-2.2-23.3-6.8-30.2-11.1
						c-6.2-3.8-10.6-7.8-13.4-10.9c0.5,19.4,9.3,36.7,23.1,48.5c5.7,4.9,12.8,7.8,20.3,8.2C84.4,158.7,93.6,158.4,102.8,155.4z
						 M82.6,53.8c0.4-0.4,1-0.6,1.5-0.6l18.5,0c0,0,0.1,0,0.1,0c5.1,0,9.2,1.5,11.9,4.5c3.1,3.5,3.5,7.8,3.6,11.6l0,13.7
						c0,1.2,0.1,4.2-0.7,6.6c-0.9,2.7-2.5,4.8-4.8,6.4c1.5,0.6,2.7,1.4,3.8,2.2c5,4.2,5,10,5,14.8l0,15.3
						c-0.1,5.4-0.6,10.3-5.1,14.4c-5.1,4.4-11.2,4.4-13.2,4.4L84.4,147c-0.4,0-0.8-0.1-1.2-0.3c-0.6-0.4-1-1.1-1-1.8L82,55.2
						C82,54.7,82.2,54.2,82.6,53.8z"/>
					<path class="st0" d="M157.9,110c0.2,4,0.1,7.9-0.4,11.5c0,0,2-0.7,3.6-0.8c1,0,1.4,0,1.6,0.1c1.8-5.3,2.9-11,3.2-16.8
						c-1.1,1.1-2.4,2.2-4.1,3.4C160.7,108.3,159.3,109.2,157.9,110z"/>
					<path class="st0" d="M160.7,88.7c-1.5,2-3.4,3.8-5.7,5.2c0.5,1.9,1,3.8,1.4,5.7c0.4,1.9,0.7,4,1,5.8c2.8-1.6,6.6-4.7,8.5-8.6
						c-0.2-4.8-1-9.4-2.2-13.9C163.1,84.8,162.2,86.8,160.7,88.7z"/>
					<path class="st0" d="M104.2,159.6c-7.8,2.5-15.6,3.3-22.1,3.3c-0.8,0-1.5,0-2.2,0c6.4,2.1,13.2,3.2,20.2,3.2
						c10.4,0,20.2-2.4,28.9-6.7c7.1-3.5,13-9,16.9-16c0.8-1.4,1.5-2.9,2.3-4.5c1.3-2.9,2.4-5.9,3.2-8.8c-1.9,1.4-4.1,3.2-6.8,5.5
						C134.2,144.7,123.2,153.5,104.2,159.6z"/>
					<path class="st0" d="M156.7,126.6c-1.1,5.3-2.7,10-4.4,13.7c3.5-4.5,6.4-9.5,8.7-14.8C160.5,125.4,159.3,125.3,156.7,126.6z"/>
					<path class="st0" d="M138.6,60.1c6.5,8.2,11.6,18.1,15.1,29.4c1.4-1,2.5-2.1,3.5-3.4c0.1-0.2,0.3-0.4,0.4-0.5
						c3.3-4.8,3.5-11.1,0.8-16.3c-11.1-20.9-33.1-35.2-58.3-35.2c-0.4,0-0.8,0-1.2,0c4.5,1.2,9.7,3,15.2,5.8
						C123.6,44.8,131.9,51.6,138.6,60.1z"/>
				</g>
			</g>
			<g>
				<g>
					<path class="st0" d="M95.8,172.9l-7-0.8c-0.3,0-0.5,0.2-0.6,0.5l-1.8,16.1c0,0.1,0,0.3,0.1,0.4c0.1,0.1,0.2,0.2,0.4,0.2
						l6.9,0.8c0,0,0,0,0.1,0c0.1,0,0.2,0,0.3-0.1c0.1-0.1,0.2-0.2,0.2-0.3l0.1-1c0-0.3-0.2-0.5-0.5-0.6l-5.1-0.6l0.7-5.9l4.1,0.5
						c0.1,0,0.3,0,0.4-0.1c0.1-0.1,0.2-0.2,0.2-0.3l0.1-1c0-0.3-0.2-0.5-0.5-0.6l-4.1-0.5l0.6-5.2l5.1,0.6c0.3,0,0.5-0.2,0.6-0.5
						l0.1-1c0-0.1,0-0.3-0.1-0.4C96.1,173,96,172.9,95.8,172.9z"/>
					<path class="st0" d="M114.3,171.6l-8.3,1.1c-0.3,0-0.5,0.3-0.4,0.6l0.1,1c0,0.1,0.1,0.3,0.2,0.3c0.1,0.1,0.2,0.1,0.4,0.1
						l2.9-0.4l2,14.6c0,0.3,0.3,0.5,0.5,0.5c0,0,0,0,0.1,0l1.4-0.2c0.1,0,0.3-0.1,0.3-0.2c0.1-0.1,0.1-0.2,0.1-0.4l-2-14.6l3-0.4
						c0.1,0,0.3-0.1,0.3-0.2c0.1-0.1,0.1-0.3,0.1-0.4l-0.1-1C114.8,171.8,114.6,171.6,114.3,171.6z"/>
					<path class="st0" d="M78.1,169.7l-1.3-0.5c-0.1,0-0.3,0-0.4,0c-0.1,0.1-0.2,0.2-0.3,0.3l-4,11.1l0.8-12.4
						c0-0.2-0.1-0.4-0.3-0.5l-1.9-0.7c-0.3-0.1-0.6,0-0.7,0.3l-5.7,15.2c-0.1,0.3,0,0.6,0.3,0.7l1.2,0.5c0.1,0,0.3,0,0.4,0
						c0.1-0.1,0.2-0.2,0.3-0.3l4-10.8c0,0,0,0,0-0.1l-0.8,12.2c0,0.2,0.1,0.4,0.3,0.5l2,0.7c0.1,0,0.1,0,0.2,0c0.1,0,0.1,0,0.2,0
						c0.1-0.1,0.2-0.2,0.3-0.3l5.7-15.2c0-0.1,0-0.3,0-0.4C78.3,169.8,78.2,169.7,78.1,169.7z"/>
					<path class="st0" d="M131.5,174.6c-3.6-1.2-4.1-1.6-4.6-2.8c-0.3-0.6-0.3-1.1-0.2-1.5c0.1-0.4,0.5-0.7,1.2-1
						c1.7-0.7,2,0.2,2.4,1.2l0.5,1.3c0.1,0.1,0.2,0.2,0.3,0.3c0.1,0.1,0.3,0.1,0.4,0l1.2-0.5c0.1-0.1,0.2-0.2,0.3-0.3
						c0.1-0.1,0.1-0.3,0-0.4l-0.4-1.1c-0.3-0.8-0.7-1.7-1.5-2.3c-1-0.7-2.3-0.7-4-0.1c-1.6,0.6-2.5,1.6-2.8,2.7
						c-0.2,1,0.1,1.9,0.4,2.7c0.9,2.3,2.6,2.9,5.4,3.8c2.7,0.8,3.4,1.2,4,2.7c0.3,0.7,0.4,1.2,0.2,1.6c-0.1,0.4-0.6,0.8-1.3,1.1
						c-0.5,0.2-1.3,0.5-2,0.2c-0.6-0.3-0.7-0.7-1.2-1.8l-0.5,0.2l0.5-0.2l-0.5-1.2c-0.1-0.3-0.4-0.4-0.7-0.3l-1.3,0.5
						c-0.1,0.1-0.2,0.2-0.3,0.3c-0.1,0.1-0.1,0.3,0,0.4l0.8,2.1c0.6,1.5,1.8,2.3,3.4,2.3c0.7,0,1.5-0.2,2.4-0.5
						c4.2-1.7,3-4.8,2.6-5.8C135.5,175.9,134.2,175.5,131.5,174.6z"/>
				</g>
				<g>
					<path class="st0" d="M108.1,27.7l1.3,0.2c0.1,0,0.3,0,0.4-0.1c0.1-0.1,0.2-0.2,0.2-0.3l0.9-5.9l1-1.2l2.1,7.9
						c0.1,0.2,0.2,0.4,0.4,0.4l1.4,0.2c0,0,0.1,0,0.1,0c0.1,0,0.3-0.1,0.4-0.2c0.1-0.1,0.2-0.3,0.1-0.5l-2.6-10l5-5.5
						c0.1-0.1,0.2-0.3,0.1-0.5c-0.1-0.2-0.2-0.3-0.4-0.3l-1.5-0.2c-0.2,0-0.4,0-0.5,0.2l-4.9,5.7l0.9-6c0-0.1,0-0.3-0.1-0.4
						c-0.1-0.1-0.2-0.2-0.3-0.2l-1.4-0.2c-0.3,0-0.6,0.1-0.6,0.4l-2.5,16C107.6,27.4,107.8,27.7,108.1,27.7z"/>
					<path class="st0" d="M132.4,34.9c0.1,0,0.1,0,0.2,0c0.2,0,0.4-0.1,0.5-0.3l0.4-0.9c0.1-0.1,0.1-0.3,0-0.4
						c-0.1-0.1-0.2-0.2-0.3-0.3l-4.3-1.8l5.9-13.5c0.1-0.3,0-0.6-0.3-0.7l-1.3-0.5c-0.3-0.1-0.6,0-0.7,0.3l-6.5,14.9
						c-0.1,0.1-0.1,0.3,0,0.4c0.1,0.1,0.2,0.2,0.3,0.3L132.4,34.9z"/>
					<path class="st0" d="M144.3,42.4c0.1,0.1,0.2,0.1,0.3,0.1c0,0,0,0,0.1,0c0.1,0,0.3-0.1,0.3-0.2l4.3-5.6l8.6-4.7
						c0.2-0.1,0.3-0.2,0.3-0.4s-0.1-0.3-0.2-0.5l-1.2-0.9c-0.2-0.1-0.4-0.1-0.6,0l-6,3.5l1.8-6.8c0.1-0.2,0-0.4-0.2-0.5l-1.2-0.9
						c-0.1-0.1-0.3-0.1-0.5-0.1c-0.2,0.1-0.3,0.2-0.3,0.4l-2.3,9.5l-4.3,5.6c-0.2,0.2-0.1,0.6,0.1,0.7L144.3,42.4z"/>
					<path class="st0" d="M154.7,51.7c0,0.1,0,0.3,0.1,0.4l0.8,1c0.1,0.1,0.2,0.2,0.3,0.2c0.1,0,0.3,0,0.4-0.1l9-7.2c0,0,0,0,0.1,0
						l-7.1,10c-0.1,0.2-0.1,0.4,0,0.6l1.3,1.7c0.1,0.1,0.3,0.2,0.4,0.2c0.1,0,0.2,0,0.3-0.1l12.8-10c0.2-0.2,0.3-0.5,0.1-0.7
						l-0.8-1.1c-0.1-0.1-0.2-0.2-0.4-0.2c-0.1,0-0.3,0-0.4,0.1l-9.2,7.3l7.1-10.2c0.1-0.2,0.1-0.4,0-0.6l-1.2-1.6
						c-0.1-0.1-0.2-0.2-0.3-0.2c-0.1,0-0.3,0-0.4,0.1l-12.8,10C154.8,51.4,154.7,51.6,154.7,51.7z"/>
					<path class="st0" d="M88.2,26.7c0.7,0.9,1.8,1.3,3.2,1.3c0.3,0,0.6,0,0.8,0c2.3-0.2,3.3-1.4,3.6-1.9c0.6-0.9,0.6-1.9,0.5-2.6
						l-0.9-8.9c-0.1-1-0.2-2.3-1.2-3.2c-0.8-0.8-2.1-1.2-3.7-1c-1.7,0.2-2.9,0.8-3.6,1.8c-0.5,0.7-0.7,1.6-0.5,2.9l1,9.1
						C87.4,24.8,87.5,25.8,88.2,26.7z M89.2,13.1c0.3-0.3,0.9-0.5,1.5-0.6c0.1,0,0.2,0,0.3,0c0.5,0,0.9,0.1,1.2,0.3
						c0.6,0.4,0.8,1.5,0.9,2.7l0.8,7.9c0.1,1.1,0,1.8-0.8,2.3c0,0,0,0,0,0c-0.3,0.2-0.6,0.3-1.1,0.3c-0.5,0.1-1,0-1.4-0.2
						c-0.6-0.3-0.9-0.6-1-2.2l-0.9-8.9C88.7,14.2,88.7,13.6,89.2,13.1z"/>
					<path class="st0" d="M52.7,44.1c0.1,0.1,0.3,0.2,0.4,0.2c0.1,0,0.2,0,0.3-0.1l1.1-0.8c0.1-0.1,0.2-0.2,0.2-0.3
						c0-0.1,0-0.3-0.1-0.4l-4.4-5.9l1-0.8l7.4,4c0.2,0.1,0.4,0.1,0.6,0l1.2-0.9c0.1-0.1,0.2-0.3,0.2-0.5c0-0.2-0.1-0.3-0.3-0.4
						l-7.2-3.9c1.1-1.4,1.1-2.8,0.1-4.1l-1.5-2c-2-2.7-4.7-0.7-5.6,0l-3,2.3c-0.1,0.1-0.2,0.2-0.2,0.3c0,0.1,0,0.3,0.1,0.4
						L52.7,44.1z M47.4,29.6c1-0.8,1.6-0.9,2.4,0.2l1.5,2c0.3,0.4,0.3,0.8,0.2,0.9c-0.1,0.4-0.5,0.7-1,1.1c0,0,0,0,0,0L49,35.1
						l-3.2-4.3L47.4,29.6z"/>
					<path class="st0" d="M39.9,58.7C39.9,58.7,40,58.7,39.9,58.7c0.2,0,0.3-0.1,0.4-0.2l2.4-3.1c1-1.3,1.4-2.4,1.2-3.4
						c-0.1-0.8-0.6-1.5-1.4-2.1l-2.2-1.7c-1.3-1-2.3-1.2-3.5-0.6c0-0.7-0.2-1.5-1.2-2.2l-1.8-1.4c-2.5-2-4.2,0.2-4.9,1.2l-2.2,2.8
						c-0.2,0.2-0.1,0.6,0.1,0.7l12.9,9.9C39.7,58.6,39.8,58.7,39.9,58.7z M33.8,50l-0.5,0.7l-3.9-3l0.7-1c0.5-0.7,0.9-1.1,1.2-1.2
						c0.2-0.1,0.5-0.1,1,0.3l1.5,1.2C34.6,47.6,35.3,48.2,33.8,50z M35.5,51.2c0.8-1,1.5-1.6,2.1-1.6c0.5-0.1,0.9,0.2,1.2,0.5
						l1.8,1.4c1,0.8,1.6,1.2,0.3,2.9l-1.1,1.4L35,51.9L35.5,51.2z"/>
					<path class="st0" d="M67.5,30.5c0.2,0.5,0.6,1.5,1.5,2.1c0.6,0.4,1.2,0.6,2,0.6c0.7,0,1.4-0.2,2.2-0.5c2.2-0.9,2.8-2.3,3-2.8
						c0.3-1,0-2-0.2-2.7l-3.3-8.3c-0.4-0.9-0.8-2.1-2-2.7c-1-0.6-2.4-0.5-3.9,0c-1.6,0.6-2.6,1.6-3,2.7c-0.3,0.8-0.2,1.8,0.3,3
						L67.5,30.5z M66.2,19.2c0.2-0.4,0.7-0.8,1.3-1c0.4-0.1,0.7-0.2,1.1-0.2c0.2,0,0.4,0,0.5,0.1c0.7,0.2,1.2,1.2,1.6,2.3l2.9,7.3
						c0.4,1,0.5,1.7-0.2,2.4c0,0,0,0,0,0c-0.2,0.2-0.5,0.4-0.9,0.6C72,31,71.6,31,71.1,31c-0.7-0.1-1-0.4-1.6-1.8l-3.3-8.3
						C66.1,20.4,65.9,19.8,66.2,19.2z"/>
				</g>
			</g>
		</g>
	</g>
</g>
</svg>
