<svg id="Layer_1" data-name="Layer 1" xmlns="http://www.w3.org/2000/svg" viewBox="0 0 135.98 199.03"><defs><style>.cls-1{fill:#231f20;}.cls-2{fill:#bb935c;}.cls-3{fill:#72253d;}</style></defs><path class="cls-1" d="M163.6,84c0-1.14,0-2.49,0-4v-.28c0-.45,0-.89,0-1.34v-.63c0-.79,0-1.69,0-2.65-.08-9.21-.52-27.55-1.32-37.52-.06-.87-.14-1.68-.21-2.4l-.21-2L160.24,32A47.52,47.52,0,0,0,156,29.1a102.22,102.22,0,0,0-11.63-6c-18.57-9.08-43.09-17.43-43.33-17.51L100,5.26l-1.06.37C98.7,5.71,76.77,13.39,58.77,22c-3.51,1.51-6.69,3-9.46,4.43a62.51,62.51,0,0,0-9.44,5.84l-1.58,1.24-.2,2C38,37,37.81,38.81,37.68,41c-.62,10.5-.89,26.38-.93,34.49v3.28c0,.46,0,.92,0,1.38v.24c0,1.48,0,2.82,0,4,.1,38.13,16.75,65.61,30.69,81.94,15.09,17.66,30.06,26.28,30.69,26.63l2.32,1.32,2.31-1.33c.63-.35,15.55-9.05,30.55-26.78,13.87-16.4,30.38-44,30.28-82.09" transform="translate(-32.18 -0.43)"/><path class="cls-2" d="M134.89,167.42C149,150.75,165.76,122.75,165.67,84c0-1.14,0-2.49,0-4v-.26c0-.46,0-.91,0-1.37v-.63c0-.8,0-1.7,0-2.67-.09-9.24-.53-27.65-1.33-37.67-.08-.95-.15-1.75-.22-2.44l-.21-2-.09-.88-.71-.54-1.58-1.22a49.41,49.41,0,0,0-4.41-3,105.29,105.29,0,0,0-11.85-6.07C126.65,12.18,102,3.75,101.71,3.67l-1.07-.36L100,3.08l-.67.23-1.06.37c-.22.08-22.18,7.77-40.33,16.45-3.54,1.52-6.75,3-9.55,4.48a64,64,0,0,0-9.75,6.05L37,31.89l-.7.55-.09.88-.2,2c-.14,1.48-.28,3.34-.41,5.52-.62,10.54-.9,26.47-.93,34.6,0,1,0,1.87,0,2.67v.62c0,.48,0,1,0,1.42v.21c0,1.53,0,2.86,0,4,.09,38.76,17,66.67,31.19,83.27,15.31,17.93,30.59,26.72,31.23,27.09L99.44,196l1,.58,1-.59,2.3-1.33c.65-.36,15.88-9.24,31.1-27.24m-32.2,25.45-2.31,1.33-2.31-1.31c-.63-.36-15.6-9-30.69-26.64-13.95-16.33-30.6-43.81-30.69-81.93,0-1.15,0-2.49,0-4v-.24c0-.46,0-.92,0-1.39V78.1c0-.8,0-1.69,0-2.65,0-8.11.31-24,.93-34.49.13-2.15.26-4,.4-5.44l.2-2,1.59-1.24a63.17,63.17,0,0,1,9.43-5.84C52,25,55.18,23.52,58.69,22c18-8.62,39.94-16.3,40.16-16.38l1.06-.37,1.06.37c.25.08,24.76,8.43,43.33,17.51a102.44,102.44,0,0,1,11.64,6A47.94,47.94,0,0,1,160.16,32l1.6,1.22.21,2c.07.72.14,1.53.21,2.39.8,10,1.24,28.32,1.32,37.53,0,1,0,1.86,0,2.65v.63c0,.45,0,.89,0,1.34V80c0,1.48,0,2.83,0,4,.1,38.13-16.42,65.68-30.28,82.08-15,17.74-29.93,26.44-30.56,26.79" transform="translate(-32.18 -0.43)"/><path class="cls-3" d="M168.14,79.67c0-.42,0-.85,0-1.27v-.62c0-.81,0-1.71,0-2.69-.08-9.28-.52-27.76-1.33-37.85-.08-1-.15-1.79-.22-2.5l-.21-2-.09-.88-.11-1.07-.86-.66-.7-.54L163,28.36a50.82,50.82,0,0,0-4.63-3.15A107.67,107.67,0,0,0,146.26,19c-18.51-9-42.72-17.33-43.74-17.68L101.45.94l-.67-.23L100,.43l-.81.29L98.48,1l-1.07.37c-.2.07-22.37,7.85-40.58,16.56-3.5,1.5-6.78,3-9.63,4.51a67.4,67.4,0,0,0-10.13,6.29l-1.58,1.23-.71.55-.85.66-.1,1.07-.09.88-.2,2c-.15,1.51-.28,3.41-.42,5.62-.62,10.62-.9,26.59-.93,34.73,0,1,0,1.88,0,2.68h0v.61c0,.5,0,1,0,1.47v.21c0,1.47,0,2.81,0,3.92.1,39.51,17.34,68,31.79,84.88,15.61,18.28,31.24,27.27,31.89,27.65l2.32,1.31,1,.58,1.24.71,1.24-.71,1-.59,2.31-1.33c.65-.37,16.22-9.42,31.76-27.8,14.37-17,31.46-45.52,31.37-85,0-1.15,0-2.5,0-4v-.34ZM101.49,196l-1,.59-1-.58-2.32-1.32c-.64-.36-15.92-9.16-31.23-27.09C51.72,151,34.8,123.08,34.7,84.32c0-1.1,0-2.43,0-4v-.21c0-.47,0-.94,0-1.42v-.62c0-.8,0-1.7,0-2.67,0-8.13.31-24.06.93-34.6.13-2.18.27-4,.41-5.52l.2-2,.09-.88.7-.55,1.59-1.23a63.47,63.47,0,0,1,9.75-6.05c2.8-1.46,6-3,9.55-4.48C76.06,11.45,98,3.76,98.24,3.69l1.06-.38.67-.23.67.23,1.07.36c.25.08,24.94,8.51,43.53,17.6a104.21,104.21,0,0,1,11.84,6.07,48.23,48.23,0,0,1,4.42,3l1.59,1.22.7.54.09.88.21,2c.07.69.14,1.49.22,2.44.8,10,1.24,28.43,1.33,37.67,0,1,0,1.87,0,2.67v.63c0,.46,0,.91,0,1.37V80c0,1.47,0,2.82,0,4,.09,38.75-16.68,66.75-30.78,83.42-15.22,18-30.45,26.88-31.09,27.24Z" transform="translate(-32.18 -0.43)"/><path class="cls-2" d="M133.74,104.8l0-4.92-1.2-1.22C117,84,84,103.38,72.79,112.71l-5.53,8.6,6.9-1.72c-10.57,13.33-6.76,22-6.31,22.94,1.12,3.14,3.67,5.64,7.81,7.28a23.77,23.77,0,0,0,9.74,1.24c13.18-.65,28.73-8.9,38.77-17.67l.23-.2,2-10.1-3.9,2.18A243.25,243.25,0,0,1,98,134.58c-7.14,2.24-10.42,2.61-12.76,2.08l-.29-.09a1.16,1.16,0,0,1-.76-1c-.11-4.47,7.55-14.1,11.42-18.26a45.84,45.84,0,0,1,14-10.19c3.21-1.36,5.29-1.91,6.26-1.81a21.29,21.29,0,0,1-1.32,3.11s-5.14,10.19-5.35,10.57Z" transform="translate(-32.18 -0.43)"/><path class="cls-3" d="M103.22,104.15a51.6,51.6,0,0,0-11.07,8.77c-12.93,13.82-22,32.29,6.39,23.38a247,247,0,0,0,24.7-9.41C84.57,159.72,48,146.12,83.86,111.61c-3.27.76-6.58,1.48-9.81,2.39,11.5-9.56,43.07-27.43,57.21-14l-15,9.28c6.44-12.7-5.21-9.69-13-5.09" transform="translate(-32.18 -0.43)"/><polygon class="cls-2" points="42.65 35.55 44.5 37.38 44.51 38.71 42.41 40.81 42.41 37.92 42.14 37.66 40.95 37.66 40.69 37.92 40.71 45.82 40.97 46.09 42.16 46.08 42.43 45.81 42.42 44.6 44.52 42.49 44.53 46.33 42.69 48.18 40.46 48.19 38.61 46.34 38.59 37.4 40.43 35.56 42.65 35.55"/><polygon class="cls-2" points="47.67 35.54 47.7 46.07 50.85 46.06 50.47 48.16 45.6 48.17 45.58 36.19 45.45 35.55 47.67 35.54"/><polygon class="cls-2" points="56.43 35.52 56.44 37.62 53.8 37.63 53.81 40.39 55.92 40.38 55.93 42.23 53.81 42.24 53.82 46.05 56.46 46.05 56.46 48.15 51.73 48.16 51.7 36.32 51.57 35.53 56.43 35.52"/><polygon class="cls-2" points="63.99 35.5 62.19 48.13 59.87 48.14 58.68 46.56 57.16 35.52 59.26 35.51 60.61 45.89 61.89 35.51 63.99 35.5"/><polygon class="cls-2" points="69.56 35.49 69.56 37.59 66.93 37.59 66.94 40.35 69.05 40.35 69.06 42.2 66.94 42.2 66.95 46.02 69.59 46.02 69.59 48.11 64.86 48.12 64.83 36.29 64.7 35.5 69.56 35.49"/><polygon class="cls-2" points="72.73 35.48 72.76 46.01 75.91 46 75.53 48.1 70.67 48.11 70.64 36.13 70.51 35.48 72.73 35.48"/><path class="cls-2" d="M113.66,35.89l1.88,12.62h-2.12L113.1,46h-2l-.31,2.49h-2.1l1.67-11.84-.13-.79Zm-2.3,8h1.47l-.74-5.79Z" transform="translate(-32.18 -0.43)"/><polygon class="cls-2" points="90.06 48.06 88.09 48.07 86.1 41.22 86.1 41.24 86.12 48.07 84.02 48.08 83.99 36.24 83.84 35.45 85.96 35.45 87.95 41.87 87.93 35.44 90.03 35.44 90.06 48.06"/><path class="cls-2" d="M129.32,37.68l0,9.09-1.72,1.71h-4.34l0-11.87-.12-.75,4.34,0Zm-2.12.54-.27-.26h-1.57l0,8.43H127l.26-.26Z" transform="translate(-32.18 -0.43)"/><polygon class="cls-2" points="18.45 52.86 22.36 56.71 22.37 59.51 17.95 63.96 17.93 57.86 17.36 57.29 14.87 57.3 14.3 57.87 14.34 74.53 14.91 75.09 17.41 75.09 17.97 74.52 17.97 71.95 22.39 67.51 22.41 75.61 18.52 79.52 13.82 79.53 9.91 75.64 9.87 56.74 13.75 52.87 18.45 52.86"/><path class="cls-2" d="M66.2,53.25l4,26.65H65.7L65,74.65H60.79l-.66,5.27H55.7l3.54-25L59,53.27ZM61.34,70.19h3.1L62.88,58Z" transform="translate(-32.18 -0.43)"/><polygon class="cls-2" points="51.24 52.78 47.45 79.45 42.55 79.46 40.04 76.13 36.82 52.81 41.25 52.8 44.1 74.72 46.81 52.79 51.24 52.78"/><path class="cls-2" d="M93,53.19l4,26.64-4.46,0-.68-5.27H87.61L87,79.86H82.53l3.54-25-.28-1.67ZM88.17,70.13h3.1L89.71,57.89Z" transform="translate(-32.18 -0.43)"/><polygon class="cls-2" points="70.74 52.73 70.79 74.96 77.46 74.94 76.64 79.37 66.37 79.4 66.31 54.11 66.04 52.74 70.74 52.73"/><polygon class="cls-2" points="83.67 52.7 83.74 79.36 79.3 79.37 79.24 54.37 78.94 52.71 83.67 52.7"/><polygon class="cls-2" points="95.93 52.67 95.94 57.1 90.38 57.11 90.39 62.94 94.86 62.93 94.87 66.83 90.4 66.84 90.42 74.91 95.99 74.89 96 79.33 86 79.35 85.94 54.36 85.67 52.69 95.93 52.67"/><path class="cls-2" d="M139.28,53.07l3.88,3.86v6.66l-3.66,2.48,3.68,4.75,0,8.9h-4.43l0-7.23L136,68.41l-1.17.77,0,10.56h-4.43l-.06-25-.27-1.67Zm-4.44,11.68,3.89-2.81V58.07l-.56-.56h-3.33Z" transform="translate(-32.18 -0.43)"/><polygon class="cls-2" points="121.58 60.93 121.57 57.6 121 57.03 118.24 57.04 117.67 57.61 117.68 60.94 126.03 67.59 126.05 75.35 122.19 79.26 117.19 79.27 113.29 75.38 113.27 67.62 117.7 70.37 117.71 74.27 118.28 74.84 121.05 74.83 121.61 74.26 121.6 69.83 113.25 63.15 113.24 56.49 117.13 52.61 122.13 52.6 126 56.46 126.02 63.69 121.58 60.93"/></svg>