<?xml version="1.0" encoding="UTF-8"?>
<svg id="Layer_1" data-name="Layer 1" xmlns="http://www.w3.org/2000/svg" xmlns:xlink="http://www.w3.org/1999/xlink" viewBox="0 0 200 123.78">
  <defs>
    <style>
      .cls-1 {
        clip-path: url(#clippath);
      }

      .cls-2 {
        fill: none;
      }

      .cls-2, .cls-3, .cls-4, .cls-5, .cls-6 {
        stroke-width: 0px;
      }

      .cls-3 {
        fill: #0b1a23;
      }

      .cls-4 {
        fill: #fdb825;
      }

      .cls-7 {
        clip-path: url(#clippath-1);
      }

      .cls-8 {
        clip-path: url(#clippath-2);
      }

      .cls-5 {
        fill: #36246b;
      }

      .cls-6 {
        fill: #fff;
      }
    </style>
    <clipPath id="clippath">
      <rect class="cls-2" y="0" width="200" height="123.78"/>
    </clipPath>
    <clipPath id="clippath-1">
      <path class="cls-2" d="M95.91,117.27c29.83,0,54.01-24.55,54.01-54.83S125.74,7.62,95.91,7.62s-54.01,24.55-54.01,54.83,24.18,54.83,54.01,54.83h0Z"/>
    </clipPath>
    <clipPath id="clippath-2">
      <path class="cls-2" d="M95.91,117.27c29.83,0,54.01-24.55,54.01-54.83S125.74,7.62,95.91,7.62s-54.01,24.55-54.01,54.83,24.18,54.83,54.01,54.83h0Z"/>
    </clipPath>
  </defs>
  <g class="cls-1">
    <path class="cls-6" d="M43.51,27.84S60.54,0,95.41,0s51.08,27.03,51.08,27.03h47.3l-1.89,11.62s-1.35,4.59-3.51,5.13h3.24s1.08,4.05-5.4,18.11h13.78s.54,24.59-29.19,36.22c0,0-15.4,4.86-23.24-3.51,0,0-15.68,29.19-52.16,29.19s-52.97-30-52.97-30H0l6.76-12.16H2.16l5.41-10h9.19l1.62-3.78h-4.32l10.54-19.46h5.95l2.43-5.95h-5.13l7.84-14.59h7.84Z"/>
  </g>
  <path class="cls-4" d="M95.91,117.27c29.83,0,54.01-24.55,54.01-54.83S125.74,7.62,95.91,7.62s-54.01,24.55-54.01,54.83,24.18,54.83,54.01,54.83h0Z"/>
  <path class="cls-5" d="M101.87,62.17l-2.36-.02c-.17,0-.3.14-.3.3s.13.3.3.3l2.39-.02c.81,0,1.55.1,1.35.46l-6.19,11.83c-.77,1.41-2.4,1.05-2.66-.08l-3.07-15.85,10.78-8.37c1.07-.92,3.13-2.42,4.19-2.4h2.35c1.43-.02,1.94.65,1.6,1.51l-.42.8c-.27.45-1.12.5-1.84.5h-1.36c-.17,0-.3.14-.3.31s.14.3.3.3h1.34c.58,0,1.31.01,1.04.45l-5,9.54c-.23.37-1.27.44-2.15.44h0ZM120.53,68.06c-5.05,6.12-7.9,8.21-13.03,8.21-1.74,0-2.65-.39-2.17-1.24l6.08-12.22h2.32c2.59,0,2.23,2.18,1.53,5.13-.13.41.19.44.49.08l5.78-10.15c.28-.64-.45-.77-.8-.28-2.9,3.93-5.94,3.64-7.22,3.64h-1.05l6.49-12.39h2.62c3.3.21,4.83,3,3.88,9.75h1.37l4.77-9.41c.38-.79-.43-1.52-1.33-1.52h-32.39c-1.87.01-1.96,1.45-.16,1.45,1.46,0,1.38,2.09.07,3.1l-13.75,10.91,2.77,12.89c.21.97.83,1.44,1.91,1.44h26.78c1.1,0,1.56-.45,1.92-.91l4.85-8.38c.67-1.2-.89-1.13-1.73-.1h0Z"/>
  <path class="cls-5" d="M61.28,64.54h-8.52l10.78-14.21-2.26,14.21h0ZM59.3,73.37c-.26,1.46-1.72,2.43-3.57,2.91l-1.9.48,1.56-2.82c.41-.77-.49-1.22-1.47-.08-6.62,7.71-8.73,11.4-18.95,11.43h-2.74c-.83,0-1.74-.32-1.18-1.12l3.62-6.73h13.72c1.87,0,1.39-1.41.29-1.45-.73-.02-1.52-.44-2.08-1.33-.16-.25-.5-1.22.04-1.98l5.25-6.98h8.74l-1.32,7.65h0ZM79.64,76.01c-.72-.02-1.19-.52-1.35-1-.23-.69-.21-1.92.07-2.45l12.5-22.16c.2-.41.71-1.27,1.33-1.26,1.1,0,1.58-1.45-.29-1.45h-10.01c-1.87,0-1.89,1.42-.1,1.42.73,0,1.02.72.82,1.15l-2.77,5.01c-.35.55-1.11.59-1.92.59h-2.38c-.17,0-.3.13-.3.29s.13.3.3.3h2.36c.64,0,1.15.2.78.94l-9.22,16.8c-.67.92-1.99,1.13-1.91-.64l3.28-24.61c.13-.77-.08-1.29-.89-1.29h-4.95c-.59,0-.95.29-1.24.68l-1.77,2.22c-.23.23-.73.23-1.28.23h-4.15c-.17,0-.3.13-.3.29s.13.3.3.3h3.39c.6,0,1.31.14,1.05.42l-4.76,5.98c-.14.17-.61.21-.89.21h-1.34c-.17,0-.3.13-.3.29s.14.3.3.3h1.12c.35,0,.35.17.21.33l-4.47,5.62c-.23.22-.68.26-1.12.26h-3.95c-.17,0-.3.13-.3.29s.13.3.3.3h3.39c.51,0,.91.1.64.44l-6.36,7.97c-1.19,1.52-6.95,2.29-8.07,2.29l21.5-40.23c.21-.46,1-1.17,1.83-1.17h4.56c2.15,0,2.09-1.43.22-1.43h-22.95c-1.87,0-1.95,1.43.21,1.43h4.25c1.2,0,1.6.73,1.28,1.32l-.61,1.11c-.21.36-.49.5-1.65.5h-7.51c-.17,0-.3.13-.3.29s.13.3.3.3h7.49c.41,0,1.02.11.63.84l-1.05,1.95c-.18.3-.64.43-1.16.43h-3.41c-.17,0-.3.13-.3.29s.13.3.3.3h3.39c.49,0,.5.32.22.77l-2.42,4.49c-.21.38-.6.44-1.37.44h-1.36c-.17,0-.3.13-.3.29s.13.3.3.3h1.34c.51,0,.65.29.42.77l-1.99,3.69c-.3.53-.72.74-2.04.74h-7.51c-.17,0-.3.13-.3.29s.13.3.3.3h7.49c.85.01,1.16.39.82.99l-3.88,7.29c-.23.32-.86.37-1.94.37h-7.51c-.17,0-.3.13-.3.29s.14.3.3.3h7.49c.9,0,1.44.04,1.18.51l-2.23,4.2c-.41.64-1.56.64-2.01.64h-2.38c-.17,0-.3.13-.3.29s.14.3.3.3h2.36c.83,0,1.27.14,1.06.59l-2.98,5.61c-.27.5-1.44.52-2.33.52h-11.61c-.16,0-.3.13-.3.29s.13.3.3.3h11.59c.77,0,1.74.1,1.38.71l-1.9,3.58c-.18.3-.83.32-1.77.32h-2.38c-.17,0-.3.13-.3.3s.13.3.3.3h2.36c.58,0,1.28.06,1.03.5l-1.19,2.29c-.38.57-.77,1.07-1.69,1.07h-5.83c-2.15,0-2.08,1.44-.21,1.44l34.21.02c1,0,1.03-.14,1.5-.87l5.07-8.85h25.93c1.87,0,1.39-1.41.29-1.45h0Z"/>
  <path class="cls-5" d="M145.85,59.79c-.94.77-2.42,1.66-2.71,1.38-.4-.4-1.64-1.25-2.31-1.56l5.58-10.21c.23-.36.5-.56,1.11-.56,2.17,0,2.89,2.36,1.87,5.3-.72,2.06-1.88,4.29-3.54,5.66h0ZM190.95,68.94c-.14-.7-.4-.28-.86.61-.14.27-.59.27-1.04.27h-1.37c-.17,0-.3.14-.3.31s.14.3.3.3h1.35c.51,0,.52.34.28.85-.94,2.01-1.91,3.36-3.2,4.97-.2.26-.72.48-1.14.48h-1.38c-.17,0-.3.14-.3.31s.14.3.3.3h1.35c.68,0,0,.42-.12.57-2.39,3.19-4.04,4.62-5.8,6.04-.21.17-1.2.11-1.89.1h-1.36c-.17,0-.3.14-.3.31s.13.3.3.3h1.34c1.02,0,.26.59.1.72-3.73,3.11-9.28,4.11-11.82,3.79-8.25-1.03-9.95-7.29-10.56-9.8-.13-.52-.52-1.59-.65-2.26-.25-1.31,3.47-1.68,4.49-.99,1.56,1.04,5.19,2.11,8.05,2.12,2.64,0,8.06-1.91,9.62-6.45,1.6-4.65-2.42-9.8-4.21-11.58-2.27-2.27-4.41-5.89-3.51-8.54.68-2,1.82-2.91,4.26-2.91,3.15,0,5.45,2.03,5.45,4.91,0,.26-.16.56-.37.56h-1.11c-.16,0-.3.14-.3.31s.14.3.3.3h1.05c.29,0,.48.22.4.58-.21.96-.27,1.64-.48,2.61-.12.56.7.95.98.54l4.96-8.85c.36-.67-.44-.85-1.03-.64-1.36.47-3.56.8-4.35.24-1.85-1.33-3.54-2.19-6.13-2.19-4.41,0-7.49,1.08-9.47,4.71-.15.28-.59.28-.96.28h-.85c-.17,0-.3.13-.3.3s.13.3.3.3h.72c.31,0,.52.08.36.44-.14.32-.26.67-.37,1.03-.5,1.57-.34,3.77.45,5.74.05.13-.11.19-.42.19h-1.35c-.16,0-.3.14-.3.31s.13.3.3.3h1.35c.61,0,.76.06,1.01.42.7.98,1.41,1.7,2.31,2.84.28.36-.92.46-1.56.45h-5.34c-.17,0-.3.13-.3.3s.13.3.3.3h5.41c.87,0,2.36-.02,2.53.17,1.31,1.51,2.89,3.84,3.16,5.8.08.56-.14.8-.83.8h-.72c-.17,0-.3.13-.3.3s.13.3.3.3h.64c.55,0,.85.09.72.5-.7,2.24-1.75,3.87-6.04,3.84-4.49-.02-5.4-4.43-4.09-9.02.26-.92-.01-1.31-.42-.59l-3.12,4.91c-.08.11-.38.39-.85.39h-.44c-.17,0-.3.13-.3.3s.14.3.31.3c.4,0,.55.21.4.43l-1.15,1.79c-1.89-4.32-5.05-9.64-6.74-11.58l.03-.09c4.16-.25,10.31-4.15,11.31-7.64,1.75-6.05-4.13-8.28-7.33-8.28h-14.08c-1.87,0-2.01,1.42-.21,1.42.97,0,1.82.85,1.39,1.71l-3.12,5.62c-.26.46-1.22.43-2.48.43h-1.37c-.17,0-.3.13-.3.3s.13.3.3.3h1.34c.9,0,1.88.05,1.55.7l-3.69,6.65c-.18.31-.66.34-1.91.34h-1.36c-.17,0-.3.14-.3.3s.13.3.3.3h1.33c.99,0,1.36.13,1.08.64l-4.92,8.9c-.59.64-1.29.76-2.49.76-1.79,0-1.77,1.42.1,1.42h12.06c1.87,0,1.39-1.45.29-1.45-.65,0-1.34-1.19-.91-1.91l6.15-11.66h.63c2.74,0,3.4,4.49,3.91,9.39.04.35-.63.37-1.99.37h-3.42c-.16,0-.3.14-.3.3s.13.3.3.3h3.39c.9,0,2.15,0,2.18.3.24,2.15.41,4.04.82,5.77.13.54-.83.46-1.86.46h-4.36c-.17,0-.3.14-.3.3s.13.3.3.3h4.35c1.37,0,2.07,0,2.15.29,1.87,6.88,9.92,12.29,17.73,11.99,6.71-.26,12.37-3.9,15.28-6.23,3.86-3.1,9.53-9.58,11.84-14.3.42-.86,1.1-1.97.95-2.74h0Z"/>
  <path class="cls-5" d="M77.97,38.58c-1.13,1.46-2.63,1.83-4.31,1.83h-.47l2.97-5.87c.14-.27.45-.48.84-.48s.33-.74-.16-.74h-4.67c-.4,0-.54.74-.17.74.4,0,.47.44.28.81l-2.65,5.23c-.18.28-.47.36-.8.44-.39.1-.67.81-.22.81h7.46c.58,0,.71-.21.86-.42l1.5-2.32c.22-.28-.24-.32-.45-.04h0Z"/>
  <path class="cls-5" d="M100.45,33.53c-.23.12-.76.19-.99,0-.6-.5-1.77-.88-2.38-.88-1.76,0-3.03.35-3.8,2.01-.65,1.41.02,2.6,1.57,3.32.67.31,1.56.72,1.22,1.53-.25.59-.94.65-1.56.64-.83,0-2.09-.63-2.28-1.81-.06-.39-.51-.3-.64-.09l-1.06,2.12c-.17.28.27.6.44.41.36-.38,1.14-.48,1.52-.22.53.35,1.89.97,2.7.96,1.78-.01,2.96-.47,3.93-2,.89-1.39.34-2.78-1.28-3.54-.86-.4-1.59-1.12-1.21-1.91.25-.51,1.02-.4,1.4-.34.73.12,1.66.81,1.77,1.41.05.26.37.31.51.08l.56-1.3c.13-.26-.28-.45-.43-.38h0Z"/>
  <path class="cls-5" d="M152.23,35.64l.65-1.2c.28-.53-.18-1.12-.93-1.12h-8.71c-.63,0-.44.66-.19.66.56,0,.72.68.39,1.26l-2.62,4.82c-.39.46-.64.66-1.2.66-.45,0-.61.66.02.66h8.83c.36,0,.52-.13.64-.31l1.2-1.59c.29-.38-.34-.38-.53-.19-1.52,1.53-3.16,1.48-4.34,1.48h-1.03l1.21-2.7h.26c.78,0,1.67,0,1.91.58.06.14.45.26.6,0l1.03-2.06c.17-.31-.3-.36-.42-.14-.41.73-2.2.53-2.67.53h-.26l1.51-2.97h1.68c1.04,0,1.94.74,2.23,1.54.07.19.63.35.74.1h0Z"/>
  <path class="cls-5" d="M109.15,37.17l2.91-2.38v2.38s-2.91,0-2.91,0h0ZM129.94,33.32h-3.1c-.63,0-.44.66-.19.66.66,0,1.27.78.9,1.49l-1.28,2.35-2.83-4.14c-.19-.26-.64-.38-1.02-.38h-3.05c-.63,0-.48.65-.23.65.65,0,.48.48.32.83l-2.43,4.68c-.15.37-.82.43-1.02-.05l-1.88-6.13c-.08-.24-1.18-.23-1.46,0l-4.72,3.89h-2.44c-.49,0-.68.2-.68.46s.18.49.7.49h1.28s-1.28,1.05-1.28,1.05c-.71.53-1.44,1.26-1.92,1.26h-.3c-.46,0-.72.07-.72.45s.19.5.63.5h3.8c.72,0,.58-.93.22-.93-.39,0-1.04-.5-.44-1.21l1.16-1.11h2.29c1.36,0,2.31,1.57,1.5,2.06l-.63.35c-.29.15-.42.84,0,.84h7.43c.55,0,.44-.73.18-.73-.76,0-.4-1.09-.26-1.39l1.95-3.7,2.74,5.31c.18.33.34.5.66.5h1.05c.33,0,.45-.19.6-.45l3.12-5.64c.5-1.01.89-1.3,1.52-1.3.26,0,.44-.66-.19-.66h0Z"/>
  <path class="cls-5" d="M86.66,37.99c-.83,1.65-2.22,2.64-3.1,2.19-.88-.44-.93-2.14-.1-3.8.83-1.65,2.22-2.64,3.1-2.19.88.44.93,2.14.1,3.8h0ZM85.92,32.96c-2.61,0-5.31,1.29-5.84,4.03-.47,2.39,1.18,4.86,4.1,4.86s5.34-1.82,5.86-4.45c.52-2.65-1.45-4.44-4.12-4.44h0Z"/>
  <path class="cls-5" d="M138.78,36.96h-3.36c-.63,0-.44.66-.19.66s.51.14.51.56c0,1.36-.58,1.88-1.74,1.88-1.28,0-1.74-1.55-.88-3.45.55-1.22,2-2.35,3.73-2.35,1.06,0,1.95.23,2.08,1.22.03.24.4.24.52.01l.8-1.43c.09-.15-.05-.34-.29-.35-.2-.01-.66.25-.97.03-.67-.5-2.14-.98-3.24-.98-1.8,0-4.32.41-6.02,3.36-1.54,2.67.7,5.49,2.78,5.5,1.15,0,2.49-.85,3.26-1.18l.86.58c.13.15.4.35.65.35h.32c.29,0,.41-.4.53-.66l1.32-3.19c.17-.32.07-.55-.67-.55h0Z"/>
  <path class="cls-5" d="M184.78,33.53c-.23.12-.76.19-.99,0-.6-.5-1.77-.88-2.38-.88-1.76,0-3.04.35-3.8,2.01-.65,1.41.02,2.6,1.57,3.32.67.31,1.57.72,1.22,1.53-.25.59-.94.65-1.56.64-.83,0-2.08-.63-2.28-1.81-.06-.39-.51-.3-.64-.09l-1.07,2.12c-.17.28.27.6.45.41.36-.38,1.14-.48,1.52-.22.53.35,1.89.97,2.7.96,1.78-.01,2.96-.47,3.93-2,.89-1.39.34-2.78-1.28-3.54-.86-.4-1.6-1.12-1.21-1.91.25-.51,1.02-.4,1.4-.34.73.12,1.66.81,1.76,1.41.05.26.37.31.51.08l.56-1.3c.13-.26-.29-.45-.43-.38h0Z"/>
  <path class="cls-5" d="M161.43,38.58c-1.13,1.46-2.63,1.83-4.31,1.83h-.48l2.97-5.87c.14-.27.45-.48.84-.48s.33-.74-.16-.74h-4.67c-.4,0-.54.74-.17.74.4,0,.47.44.28.81l-2.65,5.23c-.18.28-.47.36-.8.44-.39.1-.67.81-.22.81h7.46c.58,0,.71-.21.86-.42l1.5-2.32c.22-.28-.24-.32-.45-.04h0Z"/>
  <path class="cls-5" d="M172.68,33.99c1.04,0,1.94.74,2.23,1.54.07.19.63.35.74.1l.65-1.2c.28-.53-.18-1.12-.93-1.12h-8.72c-.63,0-.44.66-.19.66.56,0,.73.68.39,1.26l-2.62,4.82c-.39.46-.64.66-1.2.66-.45,0-.61.66.02.66h8.83c.36,0,.52-.13.65-.31l1.2-1.59c.3-.38-.34-.38-.53-.19-1.52,1.53-3.16,1.48-4.34,1.48h-1.03l1.21-2.7h.26c.78,0,1.67,0,1.91.58.07.14.45.26.6,0l1.03-2.06c.17-.31-.3-.36-.42-.14-.41.73-2.2.53-2.67.53h-.26l1.5-2.97h1.68Z"/>
  <g class="cls-7">
    <path class="cls-5" d="M101.87,62.17l-2.36-.02c-.17,0-.3.14-.3.3s.13.3.3.3l2.39-.02c.81,0,1.55.1,1.35.46l-6.19,11.83c-.77,1.41-2.4,1.05-2.66-.08l-3.07-15.85,10.78-8.37c1.07-.92,3.13-2.42,4.19-2.4h2.35c1.43-.02,1.94.65,1.6,1.51l-.42.8c-.27.45-1.12.5-1.84.5h-1.36c-.17,0-.3.14-.3.31s.14.3.3.3h1.34c.58,0,1.31.01,1.04.45l-5,9.54c-.23.37-1.27.44-2.15.44h0ZM120.53,68.06c-5.05,6.12-7.9,8.21-13.03,8.21-1.74,0-2.65-.39-2.17-1.24l6.08-12.22h2.32c2.59,0,2.23,2.18,1.53,5.13-.13.41.19.44.49.08l5.78-10.15c.28-.64-.45-.77-.8-.28-2.9,3.93-5.94,3.64-7.22,3.64h-1.05l6.49-12.39h2.62c3.3.21,4.83,3,3.88,9.75h1.37l4.77-9.41c.38-.79-.43-1.52-1.33-1.52h-32.39c-1.87.01-1.96,1.45-.16,1.45,1.46,0,1.38,2.09.07,3.1l-13.75,10.91,2.77,12.89c.21.97.83,1.44,1.91,1.44h26.78c1.1,0,1.56-.45,1.92-.91l4.85-8.38c.67-1.2-.89-1.13-1.73-.1h0Z"/>
    <path class="cls-5" d="M61.28,64.54h-8.52l10.78-14.21-2.26,14.21h0ZM59.3,73.37c-.26,1.46-1.72,2.43-3.57,2.91l-1.9.48,1.56-2.82c.41-.77-.49-1.22-1.47-.08-6.62,7.71-8.73,11.4-18.95,11.43h-2.74c-.83,0-1.74-.32-1.18-1.12l3.62-6.73h13.72c1.87,0,1.39-1.41.29-1.45-.73-.02-1.52-.44-2.08-1.33-.16-.25-.5-1.22.04-1.98l5.25-6.98h8.74l-1.32,7.65h0ZM79.64,76.01c-.72-.02-1.19-.52-1.35-1-.23-.69-.21-1.92.07-2.45l12.5-22.16c.2-.41.71-1.27,1.33-1.26,1.1,0,1.58-1.45-.29-1.45h-10.01c-1.87,0-1.89,1.42-.1,1.42.73,0,1.02.72.82,1.15l-2.77,5.01c-.35.55-1.11.59-1.92.59h-2.38c-.17,0-.3.13-.3.29s.13.3.3.3h2.36c.64,0,1.15.2.78.94l-9.22,16.8c-.67.92-1.99,1.13-1.91-.64l3.28-24.61c.13-.77-.08-1.29-.89-1.29h-4.95c-.59,0-.95.29-1.24.68l-1.77,2.22c-.23.23-.73.23-1.28.23h-4.15c-.17,0-.3.13-.3.29s.13.3.3.3h3.39c.6,0,1.31.14,1.05.42l-4.76,5.98c-.14.17-.61.21-.89.21h-1.34c-.17,0-.3.13-.3.29s.14.3.3.3h1.12c.35,0,.35.17.21.33l-4.47,5.62c-.23.22-.68.26-1.12.26h-3.95c-.17,0-.3.13-.3.29s.13.3.3.3h3.39c.51,0,.91.1.64.44l-6.36,7.97c-1.19,1.52-6.95,2.29-8.07,2.29l21.5-40.23c.21-.46,1-1.17,1.83-1.17h4.56c2.15,0,2.09-1.43.22-1.43h-22.95c-1.87,0-1.95,1.43.21,1.43h4.25c1.2,0,1.6.73,1.28,1.32l-.61,1.11c-.21.36-.49.5-1.65.5h-7.51c-.17,0-.3.13-.3.29s.13.3.3.3h7.49c.41,0,1.02.11.63.84l-1.05,1.95c-.18.3-.64.43-1.16.43h-3.41c-.17,0-.3.13-.3.29s.13.3.3.3h3.39c.49,0,.5.32.22.77l-2.42,4.49c-.21.38-.6.44-1.37.44h-1.36c-.17,0-.3.13-.3.29s.13.3.3.3h1.34c.51,0,.65.29.42.77l-1.99,3.69c-.3.53-.72.74-2.04.74h-7.51c-.17,0-.3.13-.3.29s.13.3.3.3h7.49c.85.01,1.16.39.82.99l-3.88,7.29c-.23.32-.86.37-1.94.37h-7.51c-.17,0-.3.13-.3.29s.14.3.3.3h7.49c.9,0,1.44.04,1.18.51l-2.23,4.2c-.41.64-1.56.64-2.01.64h-2.38c-.17,0-.3.13-.3.29s.14.3.3.3h2.36c.83,0,1.27.14,1.06.59l-2.98,5.61c-.27.5-1.44.52-2.33.52h-11.61c-.16,0-.3.13-.3.29s.13.3.3.3h11.59c.77,0,1.74.1,1.38.71l-1.9,3.58c-.18.3-.83.32-1.77.32h-2.38c-.17,0-.3.13-.3.3s.13.3.3.3h2.36c.58,0,1.28.06,1.03.5l-1.19,2.29c-.38.57-.77,1.07-1.69,1.07h-5.83c-2.15,0-2.08,1.44-.21,1.44l34.21.02c1,0,1.03-.14,1.5-.87l5.07-8.85h25.93c1.87,0,1.39-1.41.29-1.45h0Z"/>
    <path class="cls-5" d="M145.85,59.79c-.94.77-2.42,1.66-2.71,1.38-.4-.4-1.64-1.25-2.31-1.56l5.58-10.21c.23-.36.5-.56,1.11-.56,2.17,0,2.89,2.36,1.87,5.3-.72,2.06-1.88,4.29-3.54,5.66h0ZM190.95,68.94c-.14-.7-.4-.28-.86.61-.14.27-.59.27-1.04.27h-1.37c-.17,0-.3.14-.3.31s.14.3.3.3h1.35c.51,0,.52.34.28.85-.94,2.01-1.91,3.36-3.2,4.97-.2.26-.72.48-1.14.48h-1.38c-.17,0-.3.14-.3.31s.14.3.3.3h1.35c.68,0,0,.42-.12.57-2.39,3.19-4.04,4.62-5.8,6.04-.21.17-1.2.11-1.89.1h-1.36c-.17,0-.3.14-.3.31s.13.3.3.3h1.34c1.02,0,.26.59.1.72-3.73,3.11-9.28,4.11-11.82,3.79-8.25-1.03-9.95-7.29-10.56-9.8-.13-.52-.52-1.59-.65-2.26-.25-1.31,3.47-1.68,4.49-.99,1.56,1.04,5.19,2.11,8.05,2.12,2.64,0,8.06-1.91,9.62-6.45,1.6-4.65-2.42-9.8-4.21-11.58-2.27-2.27-4.41-5.89-3.51-8.54.68-2,1.82-2.91,4.26-2.91,3.15,0,5.45,2.03,5.45,4.91,0,.26-.16.56-.37.56h-1.11c-.16,0-.3.14-.3.31s.14.3.3.3h1.05c.29,0,.48.22.4.58-.21.96-.27,1.64-.48,2.61-.12.56.7.95.98.54l4.96-8.85c.36-.67-.44-.85-1.03-.64-1.36.47-3.56.8-4.35.24-1.85-1.33-3.54-2.19-6.13-2.19-4.41,0-7.49,1.08-9.47,4.71-.15.28-.59.28-.96.28h-.85c-.17,0-.3.13-.3.3s.13.3.3.3h.72c.31,0,.52.08.36.44-.14.32-.26.67-.37,1.03-.5,1.57-.34,3.77.45,5.74.05.13-.11.19-.42.19h-1.35c-.16,0-.3.14-.3.31s.13.3.3.3h1.35c.61,0,.76.06,1.01.42.7.98,1.41,1.7,2.31,2.84.28.36-.92.46-1.56.45h-5.34c-.17,0-.3.13-.3.3s.13.3.3.3h5.41c.87,0,2.36-.02,2.53.17,1.31,1.51,2.89,3.84,3.16,5.8.08.56-.14.8-.83.8h-.72c-.17,0-.3.13-.3.3s.13.3.3.3h.64c.55,0,.85.09.72.5-.7,2.24-1.75,3.87-6.04,3.84-4.49-.02-5.4-4.43-4.09-9.02.26-.92-.01-1.31-.42-.59l-3.12,4.91c-.08.11-.38.39-.85.39h-.44c-.17,0-.3.13-.3.3s.14.3.31.3c.4,0,.55.21.4.43l-1.15,1.79c-1.89-4.32-5.05-9.64-6.74-11.58l.03-.09c4.16-.25,10.31-4.15,11.31-7.64,1.75-6.05-4.13-8.28-7.33-8.28h-14.08c-1.87,0-2.01,1.42-.21,1.42.97,0,1.82.85,1.39,1.71l-3.12,5.62c-.26.46-1.22.43-2.48.43h-1.37c-.17,0-.3.13-.3.3s.13.3.3.3h1.34c.9,0,1.88.05,1.55.7l-3.69,6.65c-.18.31-.66.34-1.91.34h-1.36c-.17,0-.3.14-.3.3s.13.3.3.3h1.33c.99,0,1.36.13,1.08.64l-4.92,8.9c-.59.64-1.29.76-2.49.76-1.79,0-1.77,1.42.1,1.42h12.06c1.87,0,1.39-1.45.29-1.45-.65,0-1.34-1.19-.91-1.91l6.15-11.66h.63c2.74,0,3.4,4.49,3.91,9.39.04.35-.63.37-1.99.37h-3.42c-.16,0-.3.14-.3.3s.13.3.3.3h3.39c.9,0,2.15,0,2.18.3.24,2.15.41,4.04.82,5.77.13.54-.83.46-1.86.46h-4.36c-.17,0-.3.14-.3.3s.13.3.3.3h4.35c1.37,0,2.07,0,2.15.29,1.87,6.88,9.92,12.29,17.73,11.99,6.71-.26,12.37-3.9,15.28-6.23,3.86-3.1,9.53-9.58,11.84-14.3.42-.86,1.1-1.97.95-2.74h0Z"/>
    <path class="cls-5" d="M77.97,38.58c-1.13,1.46-2.63,1.83-4.31,1.83h-.47l2.97-5.87c.14-.27.45-.48.84-.48s.33-.74-.16-.74h-4.67c-.4,0-.54.74-.17.74.4,0,.47.44.28.81l-2.65,5.23c-.18.28-.47.36-.8.44-.39.1-.67.81-.22.81h7.46c.58,0,.71-.21.86-.42l1.5-2.32c.22-.28-.24-.32-.45-.04h0Z"/>
    <path class="cls-5" d="M100.45,33.53c-.23.12-.76.19-.99,0-.6-.5-1.77-.88-2.38-.88-1.76,0-3.03.35-3.8,2.01-.65,1.41.02,2.6,1.57,3.32.67.31,1.56.72,1.22,1.53-.25.59-.94.65-1.56.64-.83,0-2.09-.63-2.28-1.81-.06-.39-.51-.3-.64-.09l-1.06,2.12c-.17.28.27.6.44.41.36-.38,1.14-.48,1.52-.22.53.35,1.89.97,2.7.96,1.78-.01,2.96-.47,3.93-2,.89-1.39.34-2.78-1.28-3.54-.86-.4-1.59-1.12-1.21-1.91.25-.51,1.02-.4,1.4-.34.73.12,1.66.81,1.77,1.41.05.26.37.31.51.08l.56-1.3c.13-.26-.28-.45-.43-.38h0Z"/>
    <path class="cls-5" d="M152.23,35.64l.65-1.2c.28-.53-.18-1.12-.93-1.12h-8.71c-.63,0-.44.66-.19.66.56,0,.72.68.39,1.26l-2.62,4.82c-.39.46-.64.66-1.2.66-.45,0-.61.66.02.66h8.83c.36,0,.52-.13.64-.31l1.2-1.59c.29-.38-.34-.38-.53-.19-1.52,1.53-3.16,1.48-4.34,1.48h-1.03l1.21-2.7h.26c.78,0,1.67,0,1.91.58.06.14.45.26.6,0l1.03-2.06c.17-.31-.3-.36-.42-.14-.41.73-2.2.53-2.67.53h-.26l1.51-2.97h1.68c1.04,0,1.94.74,2.23,1.54.07.19.63.35.74.1h0Z"/>
    <path class="cls-5" d="M109.15,37.17l2.91-2.38v2.38s-2.91,0-2.91,0h0ZM129.94,33.32h-3.1c-.63,0-.44.66-.19.66.66,0,1.27.78.9,1.49l-1.28,2.35-2.83-4.14c-.19-.26-.64-.38-1.02-.38h-3.05c-.63,0-.48.65-.23.65.65,0,.48.48.32.83l-2.43,4.68c-.15.37-.82.43-1.02-.05l-1.88-6.13c-.08-.24-1.18-.23-1.46,0l-4.72,3.89h-2.44c-.49,0-.68.2-.68.46s.18.49.7.49h1.28s-1.28,1.05-1.28,1.05c-.71.53-1.44,1.26-1.92,1.26h-.3c-.46,0-.72.07-.72.45s.19.5.63.5h3.8c.72,0,.58-.93.22-.93-.39,0-1.04-.5-.44-1.21l1.16-1.11h2.29c1.36,0,2.31,1.57,1.5,2.06l-.63.35c-.29.15-.42.84,0,.84h7.43c.55,0,.44-.73.18-.73-.76,0-.4-1.09-.26-1.39l1.95-3.7,2.74,5.31c.18.33.34.5.66.5h1.05c.33,0,.45-.19.6-.45l3.12-5.64c.5-1.01.89-1.3,1.52-1.3.26,0,.44-.66-.19-.66h0Z"/>
    <path class="cls-5" d="M86.66,37.99c-.83,1.65-2.22,2.64-3.1,2.19-.88-.44-.93-2.14-.1-3.8.83-1.65,2.22-2.64,3.1-2.19.88.44.93,2.14.1,3.8h0ZM85.92,32.96c-2.61,0-5.31,1.29-5.84,4.03-.47,2.39,1.18,4.86,4.1,4.86s5.34-1.82,5.86-4.45c.52-2.65-1.45-4.44-4.12-4.44h0Z"/>
    <path class="cls-5" d="M138.78,36.96h-3.36c-.63,0-.44.66-.19.66s.51.14.51.56c0,1.36-.58,1.88-1.74,1.88-1.28,0-1.74-1.55-.88-3.45.55-1.22,2-2.35,3.73-2.35,1.06,0,1.95.23,2.08,1.22.03.24.4.24.52.01l.8-1.43c.09-.15-.05-.34-.29-.35-.2-.01-.66.25-.97.03-.67-.5-2.14-.98-3.24-.98-1.8,0-4.32.41-6.02,3.36-1.54,2.67.7,5.49,2.78,5.5,1.15,0,2.49-.85,3.26-1.18l.86.58c.13.15.4.35.65.35h.32c.29,0,.41-.4.53-.66l1.32-3.19c.17-.32.07-.55-.67-.55h0Z"/>
  </g>
  <path class="cls-3" d="M105.3,13.2c-4.11-.29-7.47-.41-10.41-.1.85-2.14,2.55-4.15,3.86-5.03,2.8.11,5.7.52,7.99.97,7.33,1.45,18.73,5.92,23.65,12.51-6.55-4.37-17.42-7.81-25.09-8.36h0ZM92.98,13.36c-2.47.15-6.95,1.13-8.55,1.59-.41-1.08-1.54-4.41-1.91-5.49,4.55-1.29,9.84-1.74,13.91-1.38-1.13.87-3.04,4.31-3.45,5.28h0ZM72.27,19.46c-.51-.85-2.92-3.05-4.22-3.49,3.04-2.25,10.1-5.48,12.78-6.05.46.77,1.7,4.05,2.11,5.43-2.37.51-8.65,2.77-10.66,4.1h0ZM138.37,26.94c-.67-.77-1.6-2.41-8.24-8.2-9.77-8.52-22.72-12.41-34.88-12.41-8.96,0-16.81,2.01-25.5,6.8-11.07,6.1-15.66,13.1-16.79,14.53-.84,1.05-.95,1.66-.41,1.97.39.22,1.13-.59,1.83-1.51,3.29-4.35,7.62-8.66,12.18-11.2,1.42.2,3.4,2.18,4.17,3.23-2.92,1.59-7.75,5.27-9.58,6.69-1.58,1.22-2.13,1.91-1.7,2.41.35.41,1.56-.4,2.58-1.23,1.75-1.44,6.95-5.13,9.53-6.51,1.75,2.05,1.19,5.84.57,6.66-.33.44-.38.91,0,1.13.36.2.75-.32,1.26-1.05,1.19-1.73.72-5.9-.31-7.41,3.14-1.95,7.65-3.25,10.38-3.87.23.44,3.54,10.11,4.17,11.87.35.96.69,2.11,1.39,1.9.47-.14.16-1.2-.23-2.26-.48-1.31-2.99-9.43-3.76-11.84.9-.49,6.34-1.59,7.7-1.54-.67,3.54,1.83,4.99,4.66,6.84,1.5.99,11.06,6.48,13.06,7.71,1.14.71,2.03,1.15,2.27.82.28-.38-.5-1.18-1.55-1.79-.84-.49-9.73-5.65-13.45-8-2.66-1.68-4.09-3.48-3.45-5.84.88-.26,3.56-.28,6.34-.26,18.96.15,34.16,11.02,35.86,12.76.86.88,2.06,1.64,2.52,1.28.29-.23-.21-1.23-.62-1.69h0Z"/>
  <path class="cls-3" d="M142.47,91.84c.7-1.29,1.27-2.02.67-2.36-.55-.3-1.08.89-1.75,2.05-2.22,3.84-4.63,7.02-10.1,12-6.05,5.51-13.01,8.71-15.43,9.54-2.06-5.79-9.92-30.46-10.12-31.17-.31-1.05-.57-1.36-.93-1.23-.4.14-.15.72.05,1.64.21.92,9.56,30.12,9.87,31.14-1.86.92-9.39,3.03-14.66,3.2-4.69.15-10.2,0-12.98-.64-3.26-2.63-10.68-13.11-13.49-18.69-3.32-6.57-5.52-12.62-6.08-15.18-.27-1.23-.62-2.11-1.23-1.99-.66.13-.28,1.1.1,2.41,1,3.38,2.62,8.17,6.08,14.99,3.66,7.23,10.2,15.71,12.1,18.02-5.97-1.25-13.23-4.05-20.13-9.19-5.94-4.43-11.05-10.07-13.61-14.18-.44-.71-.96-1.7-1.6-1.28-.29.19.07.99.51,1.79,3.73,6.7,12.82,16.18,24.47,21.38,13.58,6.06,28.39,5.74,41.63.61,11.58-4.48,21.66-13.71,26.63-22.86h0Z"/>
  <g class="cls-8">
    <path class="cls-3" d="M105.3,13.2c-4.11-.29-7.47-.41-10.41-.1.85-2.14,2.55-4.15,3.86-5.03,2.8.11,5.7.52,7.99.97,7.33,1.45,18.73,5.92,23.65,12.51-6.55-4.37-17.42-7.81-25.09-8.36h0ZM92.98,13.36c-2.47.15-6.95,1.13-8.55,1.59-.41-1.08-1.54-4.41-1.91-5.49,4.55-1.29,9.84-1.74,13.91-1.38-1.13.87-3.04,4.31-3.45,5.28h0ZM72.27,19.46c-.51-.85-2.92-3.05-4.22-3.49,3.04-2.25,10.1-5.48,12.78-6.05.46.77,1.7,4.05,2.11,5.43-2.37.51-8.65,2.77-10.66,4.1h0ZM138.37,26.94c-.67-.77-1.6-2.41-8.24-8.2-9.77-8.52-22.72-12.41-34.88-12.41-8.96,0-16.81,2.01-25.5,6.8-11.07,6.1-15.66,13.1-16.79,14.53-.84,1.05-.95,1.66-.41,1.97.39.22,1.13-.59,1.83-1.51,3.29-4.35,7.62-8.66,12.18-11.2,1.42.2,3.4,2.18,4.17,3.23-2.92,1.59-7.75,5.27-9.58,6.69-1.58,1.22-2.13,1.91-1.7,2.41.35.41,1.56-.4,2.58-1.23,1.75-1.44,6.95-5.13,9.53-6.51,1.75,2.05,1.19,5.84.57,6.66-.33.44-.38.91,0,1.13.36.2.75-.32,1.26-1.05,1.19-1.73.72-5.9-.31-7.41,3.14-1.95,7.65-3.25,10.38-3.87.23.44,3.54,10.11,4.17,11.87.35.96.69,2.11,1.39,1.9.47-.14.16-1.2-.23-2.26-.48-1.31-2.99-9.43-3.76-11.84.9-.49,6.34-1.59,7.7-1.54-.67,3.54,1.83,4.99,4.66,6.84,1.5.99,11.06,6.48,13.06,7.71,1.14.71,2.03,1.15,2.27.82.28-.38-.5-1.18-1.55-1.79-.84-.49-9.73-5.65-13.45-8-2.66-1.68-4.09-3.48-3.45-5.84.88-.26,3.56-.28,6.34-.26,18.96.15,34.16,11.02,35.86,12.76.86.88,2.06,1.64,2.52,1.28.29-.23-.21-1.23-.62-1.69h0Z"/>
    <path class="cls-3" d="M142.47,91.84c.7-1.29,1.27-2.02.67-2.36-.55-.3-1.08.89-1.75,2.05-2.22,3.84-4.63,7.02-10.1,12-6.05,5.51-13.01,8.71-15.43,9.54-2.06-5.79-9.92-30.46-10.12-31.17-.31-1.05-.57-1.36-.93-1.23-.4.14-.15.72.05,1.64.21.92,9.56,30.12,9.87,31.14-1.86.92-9.39,3.03-14.66,3.2-4.69.15-10.2,0-12.98-.64-3.26-2.63-10.68-13.11-13.49-18.69-3.32-6.57-5.52-12.62-6.08-15.18-.27-1.23-.62-2.11-1.23-1.99-.66.13-.28,1.1.1,2.41,1,3.38,2.62,8.17,6.08,14.99,3.66,7.23,10.2,15.71,12.1,18.02-5.97-1.25-13.23-4.05-20.13-9.19-5.94-4.43-11.05-10.07-13.61-14.18-.44-.71-.96-1.7-1.6-1.28-.29.19.07.99.51,1.79,3.73,6.7,12.82,16.18,24.47,21.38,13.58,6.06,28.39,5.74,41.63.61,11.58-4.48,21.66-13.71,26.63-22.86h0Z"/>
  </g>
</svg>