<?xml version="1.0" encoding="utf-8"?>
<!-- Generator: Adobe Illustrator 27.8.1, SVG Export Plug-In . SVG Version: 6.00 Build 0)  -->
<svg version="1.1" id="Layer_1" xmlns="http://www.w3.org/2000/svg" xmlns:xlink="http://www.w3.org/1999/xlink" x="0px" y="0px"
	 viewBox="0 0 200 200" style="enable-background:new 0 0 200 200;" xml:space="preserve">
<style type="text/css">
	.st0{fill:#C8102E;}
	.st1{fill:#12173F;}
	.st2{fill:#4891CE;}
	.st3{fill:#FFFFFF;}
</style>
<g>
	<path class="st0" d="M199.6,100.1c0,55-44.6,99.6-99.6,99.6S0.4,155.1,0.4,100.1C0.4,45.1,45,0.5,100,0.5S199.6,45.1,199.6,100.1"
		/>
	<path class="st1" d="M194.7,100.1c0,52.3-42.4,94.7-94.7,94.7c-52.3,0-94.7-42.4-94.7-94.7S47.7,5.4,100,5.4
		C152.3,5.4,194.7,47.8,194.7,100.1"/>
	<path class="st2" d="M169.1,100.1c0,38.2-30.9,69.1-69.1,69.1s-69.1-30.9-69.1-69.1S61.8,31,100,31S169.1,61.9,169.1,100.1"/>
	<path class="st3" d="M166.3,100.1c0,36.6-29.7,66.3-66.3,66.3c-36.6,0-66.3-29.7-66.3-66.3S63.4,33.7,100,33.7
		C136.6,33.7,166.3,63.4,166.3,100.1"/>
	<path class="st3" d="M34.3,149.4c3.1-2.6,6.6-1.9,8.9,0.9c1,1.1,1.6,2.4,1.7,3.5l-1.6,1.4l-0.1-0.1c0.1-1.3-0.3-2.5-1.1-3.4
		c-1.2-1.4-2.9-1.8-4.3-0.6l-2.1,1.8c-1.5,1.3-1.5,3-0.2,4.5c0.8,0.9,1.9,1.5,3.4,1.7l0.1,0.1l-1.7,1.4c-1.2-0.3-2.4-1.1-3.4-2.3
		C31.5,155.6,31.3,152,34.3,149.4"/>
	<path class="st3" d="M51.9,161.4c0.2-0.5,0.3-1,0.3-1.8l0.1-0.1l3.4,2.4l-5.8,8.1l4.5,3.2l-1.5,1.2l-6.8-4.8l5.2-7.4
		C51.6,161.9,51.8,161.7,51.9,161.4"/>
	<path class="st3" d="M67.9,171c0.1-0.5,0.1-1-0.1-1.9l0.1-0.1l3.9,1.7l-4.6,10.9l-3-1.3l3.5-8.3C67.7,171.6,67.8,171.3,67.9,171"/>
	<path class="st3" d="M81.3,175.8c0-0.5-0.2-1-0.5-1.8l0-0.2l6.7,1.2c2.9,0.5,4.4,2.3,3.9,4.9c-0.5,2.6-2.5,3.8-5.4,3.3l-2.5-0.5
		l-0.6,3.4l-3.2-0.6l1.6-8.9C81.3,176.4,81.3,176.1,81.3,175.8 M85.9,181.5c1.1,0.2,1.8-0.2,2-1.3l0.3-1.4c0.2-1.1-0.3-1.7-1.4-1.9
		l-2-0.4l-0.8,4.7L85.9,181.5z"/>
	<path class="st3" d="M101.8,178.1c-0.2-0.5-0.4-0.9-1-1.6l0-0.2l6.8-0.6c3-0.2,4.9,1.1,5.1,3.8c0.2,2.6-1.4,4.3-4.4,4.6l-2.6,0.2
		l0.3,3.5l-3.3,0.3l-0.8-9C101.9,178.6,101.9,178.3,101.8,178.1 M107.6,182.3c1.1-0.1,1.7-0.7,1.6-1.8l-0.1-1.5
		c-0.1-1.1-0.8-1.6-1.9-1.5l-2.1,0.2l0.4,4.7L107.6,182.3z"/>
	<path class="st3" d="M122.1,174.9c-0.3-0.4-0.7-0.8-1.3-1.3l-0.1-0.2l8.8-3.1l1.1,1.5l-5.3,1.9l1,2.8l4.1-1.5l0.1,1.9l-3.6,1.3
		l1.2,3.2l5.6-2l0.1,1.9l-8.2,2.9l-3-8.5C122.4,175.4,122.2,175.1,122.1,174.9"/>
	<path class="st3" d="M140,167.1c-0.4-0.3-0.8-0.6-1.6-0.9l-0.1-0.1l5.9-4.1c2.3-1.6,4.5-1.4,5.8,0.4c1,1.5,0.9,3.1-0.4,4.5l5.4,2
		l-3.3,2.3l-4.9-2l-0.7,0.5l2.5,3.7l-2.7,1.9l-5.1-7.4C140.4,167.5,140.2,167.3,140,167.1 M147,166.9c0.7-0.5,1-1.2,0.4-2l-0.6-0.9
		c-0.6-0.8-1.3-0.8-2-0.3l-2,1.4l2.2,3.2L147,166.9z"/>
	<path class="st3" d="M162.9,160.4l-1.7-1.4l0.1-0.1c1.6-0.2,3-1.1,4-2.3c1-1.1,1.3-2.2,0.5-2.9c-0.5-0.4-1.1-0.4-1.9,0.1l-2.3,1.5
		c-1.8,1.1-3.2,1.3-4.5,0.2c-1.6-1.4-1.6-3.9,0.5-6.3c1-1.1,2.2-2,3.3-2.4l1.6,1.4l-0.1,0.1c-1.3,0.1-2.6,1-3.5,2
		c-0.9,1-1.2,2-0.5,2.5c0.4,0.4,1,0.3,1.8-0.2l2.3-1.5c1.8-1.2,3.4-1.4,4.8-0.2c1.9,1.7,1.4,4.3-0.6,6.7
		C165.6,159,164.1,160.1,162.9,160.4"/>
	<path class="st3" d="M18.8,71.5c-0.5-0.1-1,0-1.9,0.1l-0.1-0.1l1.6-3.9l9.2,3.7l2.1-5.1l1.5,1.2l-3.1,7.7l-8.4-3.4
		C19.3,71.6,19,71.5,18.8,71.5"/>
	<path class="st3" d="M29.6,57.6c-3-2.2-3.5-5.7-1.3-8.8c2.3-3.1,5.7-3.8,8.8-1.6c3,2.2,3.5,5.7,1.3,8.8
		C36.2,59.1,32.7,59.8,29.6,57.6 M37,54.9c1-1.4,0.8-2.9-0.7-4l-2.5-1.8c-1.5-1.1-3-0.8-4,0.6s-0.8,2.9,0.7,4l2.5,1.8
		C34.5,56.6,35.9,56.4,37,54.9"/>
	<path class="st3" d="M46.5,44.6L45.1,43l0.1-0.1c1.6,0.1,3.1-0.6,4.3-1.6c1.2-1,1.6-2,1-2.7c-0.4-0.5-1-0.6-1.9-0.2l-2.5,1.1
		c-1.9,0.8-3.4,0.8-4.5-0.5c-1.4-1.7-0.9-4.1,1.5-6.2c1.1-1,2.5-1.7,3.7-1.8l1.4,1.6l-0.1,0.1c-1.3-0.1-2.7,0.5-3.7,1.4
		c-1,0.9-1.5,1.8-0.9,2.4c0.4,0.4,1,0.4,1.8,0.1l2.5-1.1c2-0.9,3.6-0.8,4.8,0.6c1.6,1.9,0.7,4.4-1.7,6.5
		C49.5,43.7,47.8,44.5,46.5,44.6"/>
	<path class="st3" d="M73.9,16.3l0-0.2l4.5-1.2l8,10.1l-3.4,0.9l-1.6-2l-5.6,1.5L75.4,28l-2,0.6l1.3-9.2
		C74.8,17.6,74.8,17.3,73.9,16.3 M80.1,22.4L76.7,18L76,23.5L80.1,22.4z"/>
	<path class="st3" d="M94.3,14.1c-0.1-0.5-0.3-1-0.8-1.7v-0.2l4.3,0l5.9,7.3l0-7.3l2.1,0l-0.1,11.8l-2.7,0L96.5,16l0,8.1l-2.1,0l0-9
		C94.3,14.7,94.3,14.4,94.3,14.1"/>
	<path class="st3" d="M115.3,19.4c1-3.6,4-5.4,8.1-4.3c1.2,0.3,2.6,0.9,3.5,1.9l-0.6,2.1l-0.2,0c-0.6-1.1-1.8-1.8-3-2.1
		c-2-0.5-3.6,0.2-4.1,2.1l-0.7,2.6c-0.5,2,0.4,3.3,2.2,3.8c0.6,0.1,1.1,0.2,1.6,0.1l0.9-3.4l-2.1-0.5L122,20l4.8,1.3l-1.5,5.7
		c-1.6,0.6-3.4,0.6-5.2,0.2C116,26,114.4,23,115.3,19.4"/>
	<path class="st3" d="M137.4,22.5c0.1-0.5,0.2-1,0.1-1.9l0.1-0.1l8.2,4.5l-0.4,1.8l-5-2.7l-1.4,2.6l3.8,2.1l-1.3,1.3l-3.4-1.9
		l-1.7,3l5.2,2.9l-1.3,1.3l-7.7-4.2l4.3-7.9C137.2,23,137.3,22.8,137.4,22.5"/>
	<path class="st3" d="M154.1,33.1c0.2-0.4,0.4-1,0.5-1.8l0.1-0.1l3.1,2.8l-6.6,7.5l4.1,3.7l-1.6,1l-6.2-5.5l6-6.8
		C153.8,33.6,154,33.4,154.1,33.1"/>
	<path class="st3" d="M167.4,46.5c0.3-0.4,0.6-0.9,0.9-1.6l0.1-0.1l5.4,7.6l-1.2,1.5l-3.3-4.6L167,51l2.5,3.5l-1.7,0.6l-2.2-3.1
		l-2.8,2l3.5,4.8l-1.8,0.6l-5.1-7.1l7.3-5.3C167,47,167.3,46.8,167.4,46.5"/>
	<path class="st3" d="M169.2,66.2l2-0.8l0.1,0.1c-0.6,1.5-0.4,3.1,0.2,4.6c0.6,1.4,1.4,2.2,2.3,1.8c0.6-0.2,0.9-0.8,0.8-1.7
		l-0.3-2.7c-0.2-2.1,0.3-3.5,1.8-4.1c2-0.8,4.2,0.4,5.4,3.3c0.6,1.4,0.8,2.9,0.6,4.1l-2,0.8l-0.1-0.1c0.5-1.2,0.3-2.8-0.2-4
		c-0.5-1.2-1.3-1.9-2-1.6c-0.5,0.2-0.7,0.8-0.6,1.6l0.3,2.7c0.2,2.2-0.3,3.7-2,4.4c-2.3,0.9-4.5-0.7-5.7-3.6
		C169.2,69.3,168.9,67.4,169.2,66.2"/>
	<path class="st1" d="M55.4,96l-11.9,1.8c1.2-30.1,26-54.2,56.4-54.2l0,0v0.3v18.3v5.5v3v3.1l0.3,0.1l0.8-3.2h14.8l0.1,0.4
		c-0.1,1.1-0.1,4.3,5.3,6.6l0.1,0.4L100,77.6l-21.5,0.5l0.1-0.4c5.4-2.3,5.5-5.5,5.3-6.6l0.1-0.4h14.8l-0.8-2.9l-10.8,0.4l0.1-0.3
		c3.2-1.8,3.3-4.4,3.2-5.3l0.1-0.4h5.9L95,55.6C74,57.9,57.4,74.8,55.4,96 M138.2,76.6l-1.7,5.2l0.4,0.8h15.6l0.7-2
		c-7.7-21-27.4-36.1-50.8-37l1.9,11.9C118.6,56.8,131,64.9,138.2,76.6 M136.8,117.5l-0.4,0.8l1.7,5.2c-7.2,11.7-19.6,19.8-33.9,21.1
		l-1.9,11.9c23.4-1,43.1-16.1,50.7-37l-0.7-2L136.8,117.5L136.8,117.5z M122.5,81.1l-0.1-0.4H100H77.7l-0.1,0.4
		c0,1.3-0.7,5.6-6.5,11.4L70.9,93c3.3-1.4,6.2-2.6,9-3.6c3.4-1.3,6.6-2.3,9.7-3.1c1.7-0.5,3.4-0.9,5-1.2c1.7-0.4,3.4-0.7,5.1-0.9
		l0.4-0.1l0.4,0c1.4,0.2,2.9,0.4,4.4,0.7c1.4,0.3,2.9,0.6,4.3,1c2.7,0.7,5.4,1.5,8.4,2.6c4,1.4,8,3,11.8,4.7l-0.2-0.7
		C123.2,86.7,122.6,82.5,122.5,81.1 M112.6,67.8c-3.2-1.8-3.3-4.4-3.2-5.3l-0.1-0.4h-5.9l-1.4,5.5l10.8,0.4L112.6,67.8z M110,126.5
		c0,0.1,0.1,0.1,0.1,0.2l0,0l0,0c0.1,0.1,0.3,0.3,0.5,0.4c0.2,0.1,0.5,0.3,0.8,0.4l0,0l0,0c0.5,0.2,1.2,0.4,2,0.7
		c1.5,0.4,3.3,0.6,4.8,0.7c0.4,0,0.9,0.1,1.3,0.1c0.7-2,1.6-4,2.5-6c-1.8,0.8-3.7,1.5-5.8,2.1C113.8,125.9,111.5,126.3,110,126.5
		 M86.6,128.2c0.8-0.2,1.5-0.4,2-0.7l0,0c0.3-0.1,0.6-0.3,0.8-0.4c0.2-0.1,0.4-0.3,0.5-0.4l0,0l0,0c0.1-0.1,0.1-0.1,0.1-0.2
		c-1.5-0.2-3.7-0.6-6.3-1.3c-2-0.6-4-1.3-5.8-2.1c1,2,1.8,4,2.5,6c0.4,0,0.9-0.1,1.3-0.1C83.3,128.8,85,128.6,86.6,128.2
		 M156.5,100.1L156.5,100.1v2.3l-11.8,1.9l-12.4,2c-2.7,4.3-5.5,8.6-8,12.9c-0.3,0.2-0.6,0.4-0.9,0.5c-3.9,2.2-8.3,3.6-13.1,4
		c0.4-1,1.1-2.1,1.7-3c0.4-0.5,0.8-1.1,1.3-1.8c0.4-0.6,0.9-1.2,1.3-1.8c1.2-1.6,2.5-3.2,3.8-4.8c0.6-0.8,1.3-1.6,1.9-2.4l1.4-1.8
		c0.1-0.1,0.1-0.2,0.2-0.2c0.4-0.5,0.8-1.1,1.2-1.6c0.4-0.6,0.9-1.2,1.3-1.9c0.1-0.2,0.3-0.4,0.4-0.6c0.1-0.1,0.2-0.2,0.2-0.4l0,0
		c0,0,0,0,0,0l-2.4-0.7c0,0,0,0,0,0c-0.1,0.2-0.2,0.4-0.4,0.6c-0.4,0.5-0.8,1.1-1.3,1.8c-0.7,0.9-1.6,2.1-2.7,3.3
		c-0.1,0.1-0.1,0.1-0.2,0.2l0,0c-1.3,1.5-2.6,2.9-4,4.3c-0.8,0.8-1.5,1.6-2.3,2.5c-0.9,1-2.1,2.3-3.1,3.6c-0.5,0.6-1,1.3-1.4,2
		c-0.4,0.6-0.8,1.3-1.1,2.2c-0.2,0.6-0.6,1.6-0.5,2.6c0,1,0.4,2.1,1.2,2.9c0.4,0.5,0.9,0.8,1.3,1.1l0,0l0,0c0.5,0.3,1,0.6,1.4,0.7
		c0.9,0.3,1.8,0.6,2.9,0.8c1,0.2,1.9,0.3,2.8,0.3c1,0.1,1.9,0.1,2.8,0.1c0,0,0.1,0,0.1,0c0.2,0,0.4,0,0.5,0
		c-0.1,0.5-0.3,1.1-0.4,1.6v0c0,0,0,0,0,0l-8.3,3l-5.1,1.9l-3.6-36.9l-0.3-3.4l-0.7-6.8l-0.4,0.1v6.6v1.9v0.9v40.4v15v0.3
		c-31.2,0-56.5-25.3-56.5-56.4h0l0,0H56h20.8h3.3l0.1-0.4l-5.4-1.5l-5.1-1.4l0.2-0.6c9.3-4.1,19.4-8.1,30.1-9.6
		c10.5,1.4,20.6,5.6,30.2,9.7l0.1,0.4l-5.1,1.4l-5.4,1.5l0.1,0.4h3.3h20.8L156.5,100.1L156.5,100.1z M95.9,144.7l-1-6.5l-4.9-1.8
		l-8.3-3c0,0,0,0,0,0l0,0h0c-0.1-0.5-0.2-1.1-0.4-1.6c0.2,0,0.4,0,0.5,0c0,0,0.1,0,0.1,0c0.8,0,1.8,0,2.7-0.1
		c0.9-0.1,1.8-0.2,2.8-0.3c1.1-0.2,2-0.5,2.9-0.8c0.4-0.2,0.9-0.4,1.4-0.7l0,0l0,0c0.4-0.3,0.9-0.6,1.3-1.1c0.7-0.8,1.2-1.9,1.2-2.9
		c0-0.5,0-1.4-0.5-2.6c-0.3-0.9-0.8-1.6-1.1-2.2c-0.4-0.7-0.9-1.3-1.4-2c-1-1.3-2.1-2.6-3.1-3.6c-0.8-0.8-1.5-1.7-2.3-2.5
		c-1.3-1.4-2.7-2.9-4-4.3l0,0c-0.1-0.1-0.1-0.1-0.2-0.2c-1-1.2-2-2.4-2.7-3.3c-0.5-0.7-0.9-1.3-1.3-1.8c-0.1-0.2-0.2-0.4-0.4-0.6
		c0,0,0,0,0,0l-2.4,0.7c0,0,0,0,0,0l0,0c0.1,0.1,0.2,0.2,0.2,0.4c0.1,0.2,0.3,0.4,0.4,0.6c0.4,0.7,0.9,1.3,1.3,1.9
		c0.4,0.5,0.8,1.1,1.2,1.6c0.1,0.1,0.1,0.1,0.2,0.2l1.4,1.8c0.6,0.8,1.3,1.6,1.9,2.4c1.3,1.6,2.6,3.2,3.8,4.8
		c0.5,0.6,0.9,1.2,1.3,1.8c0.5,0.7,0.9,1.3,1.3,1.8c0.6,1,1.3,2,1.7,3c-4.8-0.4-9.2-1.8-13.1-4c-0.3-0.2-0.6-0.3-0.9-0.5
		c-2.5-4.3-5.3-8.6-7.9-12.9l-12.4-2C57.4,125.6,74.5,142.7,95.9,144.7"/>
</g>
</svg>
