<svg id="Layer_1" data-name="Layer 1" xmlns="http://www.w3.org/2000/svg" viewBox="0 0 200 200"><defs><style>.cls-1{fill:#c10230;}.cls-2{fill:#2d2a26;}.cls-3{fill:#fff;}.cls-4{fill:#8a8a8d;}</style></defs><title>Team_Logos</title><path class="cls-1" d="M200,100.94A100.49,100.49,0,1,1,99.51.45,100.49,100.49,0,0,1,200,100.94"/><path class="cls-2" d="M99.49,196.21A95.26,95.26,0,0,1,31.41,34.33,94.63,94.63,0,0,1,98.46,5.68h1.07a95.27,95.27,0,0,1,68.08,161.89,94.62,94.62,0,0,1-67.05,28.64H99.49"/><path class="cls-3" d="M99.21,19.24l-1,1V32.38l1,1h3.39l1-1V20.24l-1-1Zm9.66,16.29-3.3,3.33H96.28l-3.34-3.33V17.13l3.34-3.34h9.26l3.33,3.34v18.4Z"/><path class="cls-3" d="M173.18,63.18l-1.34-.46-11,5.24-.47,1.33,1.46,3,1.33.47,11-5.24.47-1.33-1.46-3.06ZM162.65,78.92l-4.43-1.53-4-8.38,1.57-4.45,16.59-7.94,4.45,1.57,4,8.34L179.24,71l-16.59,7.93Z"/><path class="cls-3" d="M41.24,45l0,1.41L50,54.88l1.41,0,2.37-2.43,0-1.41L45,42.55l-1.41,0L41.24,45Zm18.41,4.43.09,4.69-6.47,6.67-4.72.06L35.36,48l-.07-4.72,6.45-6.63,4.71-.07,13.2,12.82Z"/><polygon class="cls-3" points="143.02 24.41 133.25 47.45 129.24 45.74 128.18 29.39 122.48 42.87 118.1 41.03 127.88 17.99 133.29 20.29 133.36 34.63 138.5 22.49 143.02 24.41 143.02 24.41"/><path class="cls-3" d="M68.38,31.94l4-1.72s.53-1.3.53-1.3l-1.37-3.13-1.31-.52-4,1.71,2.15,5ZM78.6,29.66l-1.11,3.9,7,6.89-4.87,2.12-6.49-6.22-2.36,1L74.06,45,69.6,46.92l-10-23,10.72-4.66,4.53,1.84,3.72,8.56Z"/><polygon class="cls-3" points="162.62 46.84 159.36 43.64 145.56 57.68 141.82 54 155.62 39.97 152.36 36.76 156.14 32.91 166.4 43 162.62 46.84 162.62 46.84"/><polygon class="cls-3" points="29 61.13 27.14 65.3 45.1 73.34 42.96 78.13 24.99 70.09 23.13 74.26 18.21 72.06 24.08 58.93 29 61.13 29 61.13"/><path class="cls-3" d="M166.32,125.08l-2.48,4.71-1.74-.91-.49.92-1.56,3,.43,1.33,2.46,1.3-.31-.17,1.34-.41,2.95-5.6,4.62-1.38,7.52,4,1.4,4.51-4.32,8.22s-4.54,1.39-4.57,1.37l-3.76-2,2.45-4.67,1.9,1,2-3.89-.42-1.35-2-1.05-1.37.42-2.88,5.49-4.67,1.42v0l-7.53-4-1.47-4.59,4.32-8.22,4.58-1.32,3.55,1.84Z"/><path class="cls-3" d="M34.59,132.29l2,3.83s1.35.42,1.35.42L41,135l.43-1.35-2-3.82-4.8,2.49Zm3,10-4-.84-6.39,7.45-2.45-4.7,5.75-6.91L29.32,135,22,138.86l-2.25-4.31L42,123l5.4,10.37L45.86,138l-8.28,4.31Z"/><path class="cls-3" d="M72.25,168.13l3.54,1.47s1.29-.54,1.29-.54l1.31-3.15-.53-1.3-3.54-1.47-2.07,5Zm-1.86,4.48-3.62,8.65-4.35-1.81L72,156.3l10.59,4.4,1.76,4.54-3.51,8.43-3.49,1.86-7-2.92Z"/><polygon class="cls-3" points="108.38 168.3 103.81 168.35 104.03 188.03 98.78 188.09 98.56 168.41 94 168.45 93.94 163.07 108.32 162.91 108.38 168.3 108.38 168.3"/><path class="cls-3" d="M122.69,164.68l-.58,1.29,4.31,11.35,1.28.58,3.17-1.2.58-1.29-4.31-11.35-1.28-.58-3.17,1.2Zm14.8,11.81-1.9,4.29-8.68,3.29-4.3-1.94-6.53-17.19,1.94-4.31,8.64-3.28,4.31,1.93,6.52,17.21Z"/><path class="cls-3" d="M146.74,157.38l3.28-2.79s.12-1.4.12-1.4l-2.21-2.61-1.41-.11-3.28,2.79,3.5,4.12Zm9.11-5.15.07,4.05,8.68,4.57-4,3.45-8-4.07-2,1.68,5.36,6.3-3.71,3.15L136,152.24l8.91-7.57,4.87.45,6,7.11Z"/><path class="cls-3" d="M49.83,160.91,53.26,154l-6.65,4,3.22,3Zm-.14,11.89-3.92-3.61,1.82-3.7-5.36-4.93-3.54,2.11-3.92-3.61,22.66-13.58,3.92,3.61L49.69,172.8Z"/><path class="cls-4" d="M119,151.29c.08.1.14.23.2.23.28,0,.84-.1.84-.1l.56-.25,1.57-.61s3.94-1.87,4-1.89l.69-.37.36-.15.43-.29.69-.43.84-.46,1.07-.7,1.85-1.31.91-.71,1.31-.95,1.19-.88.56-.42.78-.73.82-.81,1.32-1.41,1.53-1.47,1.77-2,1-1.3.34-.47,1-1.28,2-2.92.57-.95,1.36-2.69.77-1.46,1.32-2.67.71-1.62.77-2.49s.91-3.28,1.41-5a.57.57,0,0,0,0-.55c-.28-.4-.49-.9-.75-1.34-.14-.24-.33-.47-.46-.66s-.48-.63-.61-.78a3,3,0,0,0-.49-.45c-.43-.4-.8-.79-1.16-1.06a3.63,3.63,0,0,1-.47-.33,16.94,16.94,0,0,0-3.49-2.08c-.52-.22-1.07-.42-1.61-.61a9.65,9.65,0,0,0-1.41-.34.74.74,0,0,0-.59.07c-.17.12-.18.38-.21.65-.07.68-.1,1.43-.16,2.12s-.11,1.42-.17,2.13-.08,1.29-.16,1.93c-.1.85-.22,1.69-.38,2.53-.3,1.57-.63,3.13-1,4.69a6.85,6.85,0,0,1-.32,1.28,9.64,9.64,0,0,0-.63,2,28.8,28.8,0,0,1-1.33,4.29,17.33,17.33,0,0,1-1.48,3.36,1.47,1.47,0,0,0-.1.22c-.3.72-.6,1.45-.93,2.16-.2.47-.5.89-.7,1.36A10.77,10.77,0,0,1,134,135c-.54.84-1.12,1.66-1.59,2.55a14.36,14.36,0,0,1-1.12,1.78l-.3.44c-.32.48-.63,1-1,1.43-.69.87-1.4,1.74-2.13,2.58-.45.53-1,1-1.43,1.53l-1.31,1.38c-.09.09-.21.17-.31.26-.26.22-.54.43-.78.67a12.29,12.29,0,0,1-1.82,1.56,8.5,8.5,0,0,0-.84.6,12.41,12.41,0,0,1-2.38,1.52"/><path class="cls-4" d="M154.22,109.16s0,0,.05-.11,0-.38,0-.38l.39-3.42.23-3.21V98.36l-.38-3.61s-.44-3.25-.77-4.92a1.55,1.55,0,0,0-1-1.13,2.81,2.81,0,0,0-.5-.22c-.36-.11-.75-.28-1.11-.37-.81-.2-1.58-.47-2.41-.61s-2-.27-2.94-.36c-.81-.07-1.62-.1-2.43-.11l-1.68,0c-.35,0-.72,0-.88.22s0,.61,0,1c.12.79.25,1.18.38,2a55,55,0,0,1,.9,7c0,1.06.1,2.12.14,3.17,0,.3,0,.5,0,.81a1.16,1.16,0,0,0,.13.51c.09.14.24.17.41.22s.4.08.6.13.58.13.83.21c.94.3,1.94.64,2.85,1a19.31,19.31,0,0,1,1.87,1,1.53,1.53,0,0,1,.21.14l1.08.81a11,11,0,0,1,2.39,2.09,3.56,3.56,0,0,0,.42.45c.26.23.69,1,1,1.41a.19.19,0,0,0,.13.08"/><path class="cls-4" d="M130.08,70.68c.32,0,.61,0,.86-.06s.35,0,.44-.22a.66.66,0,0,0-.11-.49c-.07-.16-.69-1.25-.69-1.25l-.6-.94-2.54-3.67-.53-.62-.49-.66-.83-.92-2.06-2.26-.88-.86-3.19-2.95-2.61-2-.94-.49-3.06-1.88-2.15-1.16-.42-.17-1.74-.64-2.59-1-.21,0-.83-.21-.22,0L104,48l-1.55-.29-.73,0-1.38-.26-1.64-.1-.58-.08h-1l-1.73.05-1.71.19-1.32,0-1.17.13-1.19.24-.91.28-1.48.28h-.33l-1.37.49-.82.23-.49.3-1.2.32-.58.34-.73.28-1.78.74L78,52l-.75.36-1.58.86-1.38.9L73,54.79l-.46.27-1.41.74-.23.15-1.6,1.26-1.33.9-.26.17-1.5,1.18-.55.46a7.45,7.45,0,0,0-.83.79l.57-.17,1.05-.38.2,0,1.49-.6h.22L70,58.93s.85-.28.85-.26.87-.32.87-.32l1.21-.43,2.93-1.13h.27l1.5-.52,1.19-.49.17.12,2.3.06,1.47.11,0,0,3,.23,0,0,4.09.21,0,.1,1.45,1.25h.11l1.48,1.43.13-.07,2,.06.1-.07,5.11.3,0,.11,2.27,1.32h.1l4,1.95,0,.22L109,62.2l3.34,1.12.57.93,1.22.08,1.18,1.33h.12l1,1.08,0,.07h.13l2.64.6,1,1.5,2.44.89s2.61.67,4,.84a21,21,0,0,0,3.53,0"/><path class="cls-4" d="M152.81,86.14a10.88,10.88,0,0,0-.35-1.18l-.15-.42-.14-.51-.43-1.29-.4-1.13-1.25-2.79-.57-1.37-.72-1.58-.85-1.4-.2-.41-.57-1.15-.53-.86-.22-.3-3.66-4.94-.53-.63c-.08-.11-.11-.19-.22-.19h0a26.31,26.31,0,0,1-1.59,2.36c-.47.52-1.41,1.38-1.41,1.38s-.79.65-.93.75-.73.5-.73.5l-.84.48-.73.33a.7.7,0,0,0-.29.17.34.34,0,0,0-.06.29,2.83,2.83,0,0,0,.11.31c.34.71.65,1.43,1,2.12.56,1,.91,2.12,1.37,3.19.15.35.31.7.43,1.06.31.95.6,1.89.9,2.84.13.42.27.83.39,1.25s.22.85.33,1.28a.49.49,0,0,0,.55.4l.82,0c1,0,2-.06,2.93-.07.29,0,2.24.17,2.24.17s.7.07,1,.13c.74.13,1.48.3,2.22.45a9.24,9.24,0,0,1,1.84.61,6.33,6.33,0,0,0,.9.3.82.82,0,0,0,.27,0,.26.26,0,0,0,.05-.17"/><path class="cls-4" d="M140,64.33a2.9,2.9,0,0,0-.29-.53l-.18-.33-.53-.61-.36-.52-.66-.65-.23-.19-3.49-2.83s-.65-.52-.65-.52l-1.2-1-6-3.63-4.77-2.26-2.54-1s-.92-.33-.93-.32L115,48.83l-2.2-.56-2.13-.46-.34,0-.19.18.09.1.31.15c.67.26,1.34.5,2,.77.44.17.85.4,1.29.53a3.39,3.39,0,0,1,.87.36c1,.59,2,1.18,3,1.78a10.24,10.24,0,0,1,1.68,1.26,6.67,6.67,0,0,0,1.27,1,4.18,4.18,0,0,1,.58.46l.31.27a14.52,14.52,0,0,1,1.76,1.48c.56.6,1.16,1.17,1.75,1.75a16.28,16.28,0,0,1,1.61,1.71A16,16,0,0,0,128,61c.88.87,1.55,1.9,2.35,2.82a3.14,3.14,0,0,1,.24.39,22.75,22.75,0,0,0,1.6,2.4,8.41,8.41,0,0,1,1.12,1.69,8.17,8.17,0,0,0,.65,1,.68.68,0,0,0,.49.29,1.66,1.66,0,0,0,.34-.11l.42-.17.76-.34a3.44,3.44,0,0,0,.7-.43c.14-.12.71-.51,1-.8s1-1.06,1-1.06l.46-.62.81-1.35a1,1,0,0,0,.13-.45"/><path class="cls-4" d="M137.52,84.48c-.33-1-.59-2-.94-3-.3-.81-.52-1.65-.9-2.43a15.13,15.13,0,0,1-.53-1.47c-.09-.25-.21-.48-.3-.73a27.81,27.81,0,0,0-1.65-3.49l-.12-.22a.53.53,0,0,0-.26-.3c-.15-.09-.27,0-.54,0-.52.06-1.17.13-1.44.13s-1.27.08-2.08.15l-.19-.06h-1L125,72.76c-1-.14-3.14-.69-3.14-.69l-1.6-.55-2-.67-.15.08L115,70.69l-.1,0-1.73-1.32H113l-1.08-1,0-.19-1.2-.19-.11,0-1-.33-.11-.11-2.26.17-2-.84-7.1.38L98,67.3l-1.34.11-.14.1L93,67.78l-.1-.09-5,2.88-.05.21-.23.2-.12-.08L85,70.67l-.14.06-4.43,0-.09,0-1.26,0-.39-.23L74.05,74l0,.09L72.41,75.4l-1.83-.86-.1,0-.68-.2s-3.34.85-3.31.88-3.13-.5-3.13-.5l-.21-.18-.59.61-1.25.6,0,.11-2.49,1.9-3.55,2.56-4,3-1.79,1.31-.09.77-.76,1.75-.33,1.51-.5,3L47.48,93l-.11,1.58-.44,3.29-.18,7.21.19.42.13,2s0,.35.11.36h0L56,98.74l2.89-1.16,2.44-.13,1.47-1.69.14-.31.18.08,4-.45.18-.13h1.48l.22.1.48-.64,1.78-1.1L73.16,92l5.35.07,0,.11,2.09.2,1.64-.33,3-3.06h.06l2.38-2.26,3.58-.46.15-.1.15.16,1.86.87.14-.12,1.65-.2.08-.09,1.54-.26.14-.08,1.69,1.43.09-.11,3.45-.06.29-.22,2.78.14.15,0,.43-.1.07-.13,1.11-.5.13,0,1.27-.58.11-.11,1.36-.52.1-.16,3.78-1.44,0-.06.67-.21.14-.14.19.2,1.1.54h.34l1.23.69.08-.12.37-.18,0,0,.62-.29,0,0,.88-.21,2.26.58.48-.1.41.27,1.66.25L126,86l.94-.07s.31.21.31.21l.24-.14s3.19-.4,4.8-.53c1-.08,2.08-.19,3.12-.3l1.77-.18c.31,0,.47-.16.36-.52"/><path class="cls-4" d="M139.85,100.88c0-.22,0-.37,0-.58,0-.62-.06-1.23-.1-1.86,0-.2,0-.4,0-.61-.05-.77-.06-1.54-.14-2.31-.1-1-.24-1.94-.38-2.9-.12-.75-.26-1.49-.4-2.23s-.27-1.5-.43-2.27-.34-.89-1.15-.8l-.2,0c-.3.06-.72.1-1,.14-1.57.2-3,.29-4.62.47l-4.5,1.57-6.5-.17-.71-.23v.11l-1.92,1.42-.27,0L115.9,92.1l-.09.2-3.89.52-3.56,2.74H108l-1.89,1.12-.75.08-.74.63-.2-.16L100.79,97l-.63.71v.11L97,101.22l0,.2-.12,0-4,4.56H91.79l-.09.11-3.28.57h-.25a.89.89,0,0,1-.09.16l-5.4,3-2.43-.29-.51.18-2.42-.14-2.39,2.58-1.44.3-.8,0-.85.36-.51-.06,0,.1-3,2.31-.29.06-4.65,3.61,0,.22-2.88,7,.12.3-4.75.43-1.56,1.34-.14.51,2.11,2.93,1.56,2.39,1.35,1.72L61.48,138s0,.17.06.18l.3,0,1.32.45,1.62.51s0,.08,0,.08l.16,0,2.69,1h.2l.15.18h.24l.63.42,1.12-.61h.06l.5-.32,4.07,1,3-1.52,6.63-.66L87,134.4l1.2-1.21h.11l1-.88a.47.47,0,0,0,0-.12l1.71-1.55.79-.84.2-.1s.92-1,.92-1l.74-.76.19,0-.19-.68.77-2.8,1.49-.44,0-.06.45-.1v-.25l2-3.23.18-.08.82-1.59,1.35-.77.18-.22.27,0s.79-.47.81-.46h.1l1.46-.64.12-.18,4.87-2.23.29,0,.06-.27.19-.14.5-1.7,1.54-.66,1.77-.22,1.62-1.12,2.31.1.23.19.11-.15,3.22-1.44,0-.41.77-1.48,1.58-.42.08-.1,2.17-.46.83-1,.11,0,.52-.49s1.49.2,1.49.2l.07.05.81.12.51.06s2.19-1,3.1-1.38c.39-.15.77-.24,1.13-.37l1.52-.53.76-.22,1-.19L138,102l.72,0,.49-.06a.86.86,0,0,0,.49-.16.55.55,0,0,0,.16-.42,2.3,2.3,0,0,0,0-.4"/><path class="cls-4" d="M139.8,105.14a.88.88,0,0,0-.11-.61.52.52,0,0,0-.43-.17c-.11,0-.68.07-.68.07l-.94.14-.31.06c-.57.14-1.13.25-1.69.41a14.64,14.64,0,0,0-1.84.6c-.62.28-1.31.5-1.93.79-.23.11-2.32,1.13-3.27,1.61l-1.22,1.29,0,.29-.16-.07-.76,0,0,.06-2.49.82,0,.28-.26.25v.16l-1.17,2h-.15l0,.21-.5.83-5.24,3.36h-.11l-.79.67-.56,2.2-.51.49-2,7.56.27.85-3,1.45h-.49l-.58,2.63-.09.09-.75,2.39,0,.13-.31,2.06-.11.14.1.19-2.9,4.61-.22.07-.72,1.12v.22L101.28,148s-2.62,1.55-2.62,1.55l.14.22s-.14,1.06-.14,1.06l.23.39-.38.12-1.89,1.12-.2,0L93.64,154l-.33.52a10.23,10.23,0,0,0,1.09.16l1.8.14,1.23.07,1.42,0,.66,0,1.08,0,1.07,0,3.89-.47,2.31-.41,1.75-.47,1.9-.56,2.41-1,.18-.11.68-.38a29.45,29.45,0,0,0,2.83-1.69,51.81,51.81,0,0,0,4.39-3.57l1.4-1.35,1.31-1.32a.75.75,0,0,0,.22-.25,2.85,2.85,0,0,1,.69-.86,4.8,4.8,0,0,0,.51-.59,8,8,0,0,1,1.12-1.2,7.45,7.45,0,0,0,.85-1c.46-.65.89-1.32,1.33-2,.58-.89,1.22-1.75,1.71-2.68s1.07-2,1.63-3a22.17,22.17,0,0,0,1.33-2.56c.61-1.46,1.24-2.91,1.8-4.39a47.67,47.67,0,0,0,1.51-4.8,37.21,37.21,0,0,1,1-3.63,4.15,4.15,0,0,0,.11-.48c.16-1,.34-2,.49-3s.28-1.88.41-2.82c.1-.64.2-1.28.25-1.92.08-.89.12-1.78.16-2.68,0-.1,0-.29,0-.29s0-.28,0-.45"/></svg>