<svg id="Layer_1" data-name="Layer 1" xmlns="http://www.w3.org/2000/svg" viewBox="0 0 199.49 135.42"><defs><style>.cls-1{fill:#061922;}</style></defs><path class="cls-1" d="M199.68,32.26,180.17,74.11H102.09L77.48,126.88H55.41a31.8,31.8,0,0,1,12.65-23.21,36.57,36.57,0,0,1,3.58,4.85.34.34,0,0,0,.61,0h0l35.56-76.26Z" transform="translate(-0.19 -32.26)"/><path class="cls-1" d="M18.84,143.24a31.3,31.3,0,0,1-9.27,11.13A38.77,38.77,0,0,1,.19,131.2h22a31.67,31.67,0,0,1-3.3,12" transform="translate(-0.19 -32.26)"/><path class="cls-1" d="M36.62,131.2v36.48a38.75,38.75,0,0,1-24-10.19,35.83,35.83,0,0,0,10.09-12.31,35.87,35.87,0,0,0,3.78-14Z" transform="translate(-0.19 -32.26)"/><path class="cls-1" d="M20.57,119a31.07,31.07,0,0,1,1.56,7.84H.2a38.65,38.65,0,0,1,9.36-23.14,31.4,31.4,0,0,1,11,15.3" transform="translate(-0.19 -32.26)"/><path class="cls-1" d="M36.62,90.4v36.48H26.45a35.92,35.92,0,0,0-1.78-9.2,35.76,35.76,0,0,0-12.1-17.07,38.64,38.64,0,0,1,24-10.21" transform="translate(-0.19 -32.26)"/><path class="cls-1" d="M51.09,126.89H40.94V90.4A38.76,38.76,0,0,1,65,100.55a36.19,36.19,0,0,0-13.92,26.34" transform="translate(-0.19 -32.26)"/><path class="cls-1" d="M65,157.55a38.66,38.66,0,0,1-24.08,10.13V131.2H51.07a36.21,36.21,0,0,0,3.78,14A35.85,35.85,0,0,0,65,157.55" transform="translate(-0.19 -32.26)"/><path class="cls-1" d="M77.48,131.2a38.72,38.72,0,0,1-9.43,23.22A31.88,31.88,0,0,1,55.4,131.2Z" transform="translate(-0.19 -32.26)"/></svg>